<?xml version="1.0" encoding="UTF-8" standalone="no"?>
<!-- Created with Inkscape (http://www.inkscape.org/) -->

<svg
   xmlns:dc="http://purl.org/dc/elements/1.1/"
   xmlns:cc="http://creativecommons.org/ns#"
   xmlns:rdf="http://www.w3.org/1999/02/22-rdf-syntax-ns#"
   xmlns:svg="http://www.w3.org/2000/svg"
   xmlns="http://www.w3.org/2000/svg"
   xmlns:xlink="http://www.w3.org/1999/xlink"
   xmlns:sodipodi="http://sodipodi.sourceforge.net/DTD/sodipodi-0.dtd"
   xmlns:inkscape="http://www.inkscape.org/namespaces/inkscape"
   id="svg2"
   version="1.1"
   inkscape:version="0.48.4 r9939"
   width="526.18109"
   height="372.04724"
   xml:space="preserve"
   sodipodi:docname="Flyer_A6_Vorderseite.svg"
   inkscape:export-filename="C:\Users\benjamin\Dropbox\freifunk\flyer\bielefeld\Vorderseite_600dpi_Mod.png"
   inkscape:export-xdpi="600"
   inkscape:export-ydpi="600"><metadata
     id="metadata8"><rdf:RDF><cc:Work
         rdf:about=""><dc:format>image/svg+xml</dc:format><dc:type
           rdf:resource="http://purl.org/dc/dcmitype/StillImage" /><dc:title /></cc:Work></rdf:RDF></metadata><defs
     id="defs6"><clipPath
   clipPathUnits="userSpaceOnUse"
   id="clipPath18"><path
     d="m 0,0 0,2976 4209,0 L 4209,0 0,0 z"
     id="path20"
     inkscape:connector-curvature="0" /></clipPath><clipPath
   clipPathUnits="userSpaceOnUse"
   id="clipPath24"><path
     d="m 4259.05,-27.5195 -4308.6555,0 0,3075.2695 4308.6555,0 0,-3075.2695 m -525.56,2106.1495 0,0 14.09,14.04 0,0.01 c -16.28,16.34 -37.75,24.57 -59.13,24.57 l -0.05,0 0,0 0,0 -0.05,0 c -21.29,0 -42.67,-8.15 -58.93,-24.37 l 14.04,-14.09 c 12.45,12.4 28.65,18.56 44.94,18.57 16.36,-0.01 32.63,-6.23 45.09,-18.73 m 23.18,23.1 0,0 14.09,14.04 c -22.68,22.76 -52.53,34.19 -82.31,34.19 l -0.04,0 0,0 0,0 -0.05,0 c -29.64,0 -59.38,-11.32 -82.03,-33.91 l 0,0 14.04,-14.09 c 18.84,18.77 43.39,28.1 68.04,28.11 24.75,-0.01 49.41,-9.43 68.26,-28.35 m -68.27,61.07 c 33.14,-0.02 66.19,-12.65 91.44,-37.97 l 14.09,14.04 0,0 c -29.07,29.18 -67.32,43.82 -105.48,43.82 -0.02,0 -0.04,0 -0.05,0 -0.02,0 -0.03,0 -0.05,0 -37.99,0 -76.07,-14.51 -105.11,-43.45 l 0,0 14.04,-14.09 c 25.22,25.12 58.12,37.63 91.12,37.65"
     id="path26"
     inkscape:connector-curvature="0" /></clipPath><linearGradient
   x1="0"
   y1="0"
   x2="1"
   y2="0"
   gradientUnits="userSpaceOnUse"
   gradientTransform="matrix(0,307.526,307.526,0,210.375,-2.75203)"
   spreadMethod="pad"
   id="linearGradient28"><stop
     style="stop-color:#ffedbb;stop-opacity:1;"
     offset="0"
     id="stop30" /><stop
     style="stop-color:#fecd43;stop-opacity:1;"
     offset="1"
     id="stop32" /></linearGradient><clipPath
   clipPathUnits="userSpaceOnUse"
   id="clipPath42"><path
     d="m 163.488,2893.7 655.016,0 0,-496.06 -655.016,0 0,496.06 z"
     id="path44"
     inkscape:connector-curvature="0" /></clipPath><clipPath
   clipPathUnits="userSpaceOnUse"
   id="clipPath64"><path
     d="m 3583.24,2182.68 210.69,0 0,-165.36 -210.69,0 0,165.36"
     id="path66"
     inkscape:connector-curvature="0" /></clipPath><clipPath
   clipPathUnits="userSpaceOnUse"
   id="clipPath76"><path
     d="m 3733.49,2078.63 0,0 c -12.46,12.5 -28.73,18.72 -45.09,18.73 -16.29,-0.01 -32.49,-6.17 -44.94,-18.57 l -14.04,14.09 c 16.26,16.22 37.64,24.37 58.93,24.37 l 0.05,0 0,0 0,0 0.05,0 c 21.38,0 42.85,-8.23 59.13,-24.57 l 0,-0.01 -14.09,-14.04"
     id="path78"
     inkscape:connector-curvature="0" /></clipPath><linearGradient
   x1="0"
   y1="0"
   x2="1"
   y2="0"
   gradientUnits="userSpaceOnUse"
   gradientTransform="matrix(0,307.526,307.526,0,210.375,-2.75203)"
   spreadMethod="pad"
   id="linearGradient80"><stop
     style="stop-opacity:1;stop-color:#e94a86"
     offset="0"
     id="stop82" /><stop
     style="stop-opacity:1;stop-color:#e9436c"
     offset="1"
     id="stop84" /></linearGradient><clipPath
   clipPathUnits="userSpaceOnUse"
   id="clipPath92"><path
     d="m 3756.67,2101.73 0,0 c -18.85,18.91 -43.51,28.33 -68.26,28.34 -24.65,-0.01 -49.2,-9.34 -68.04,-28.11 l -14.04,14.09 0,0 c 22.65,22.59 52.39,33.91 82.03,33.91 l 0.05,0 0,0 0,0 0.04,0 c 29.78,0 59.63,-11.43 82.31,-34.19 l 0,0 -14.09,-14.04"
     id="path94"
     inkscape:connector-curvature="0" /></clipPath><linearGradient
   x1="0"
   y1="0"
   x2="1"
   y2="0"
   gradientUnits="userSpaceOnUse"
   gradientTransform="matrix(0,307.526,307.526,0,210.375,-2.75203)"
   spreadMethod="pad"
   id="linearGradient96"><stop
     style="stop-opacity:1;stop-color:#ef759f"
     offset="0"
     id="stop98" /><stop
     style="stop-opacity:1;stop-color:#ee6562"
     offset="1"
     id="stop100" /></linearGradient><clipPath
   clipPathUnits="userSpaceOnUse"
   id="clipPath108"><path
     d="m 3779.84,2124.82 c -25.25,25.32 -58.3,37.95 -91.44,37.97 -33,-0.02 -65.9,-12.53 -91.12,-37.65 l -14.04,14.09 0,0 c 29.04,28.94 67.12,43.45 105.11,43.45 0.02,0 0.03,0 0.05,0 0.01,0 0.03,0 0.05,0 38.16,0 76.41,-14.64 105.48,-43.82 l 0,0 -14.09,-14.04"
     id="path110"
     inkscape:connector-curvature="0" /></clipPath><linearGradient
   x1="0"
   y1="0"
   x2="1"
   y2="0"
   gradientUnits="userSpaceOnUse"
   gradientTransform="matrix(0,307.526,307.526,0,210.375,-2.75203)"
   spreadMethod="pad"
   id="linearGradient112"><stop
     style="stop-opacity:1;stop-color:#f4a2bb"
     offset="0"
     id="stop114" /><stop
     style="stop-opacity:1;stop-color:#f28655"
     offset="1"
     id="stop116" /></linearGradient><clipPath
   clipPathUnits="userSpaceOnUse"
   id="clipPath134"><path
     d="m 3462.09,1353.86 545.109,0 0,713.07 -545.109,0 0,-713.07 z"
     id="path136"
     inkscape:connector-curvature="0" /></clipPath><clipPath
   clipPathUnits="userSpaceOnUse"
   id="clipPath64-9"><path
     d="m 3583.24,2182.68 210.69,0 0,-165.36 -210.69,0 0,165.36"
     id="path66-8"
     inkscape:connector-curvature="0" /></clipPath><clipPath
   clipPathUnits="userSpaceOnUse"
   id="clipPath76-2"><path
     d="m 3733.49,2078.63 0,0 c -12.46,12.5 -28.73,18.72 -45.09,18.73 -16.29,-0.01 -32.49,-6.17 -44.94,-18.57 l -14.04,14.09 c 16.26,16.22 37.64,24.37 58.93,24.37 l 0.05,0 0,0 0,0 0.05,0 c 21.38,0 42.85,-8.23 59.13,-24.57 l 0,-0.01 -14.09,-14.04"
     id="path78-6"
     inkscape:connector-curvature="0" /></clipPath><linearGradient
   inkscape:collect="always"
   xlink:href="#linearGradient80-1"
   id="linearGradient3232-4"
   gradientUnits="userSpaceOnUse"
   gradientTransform="matrix(0,307.526,307.526,0,210.375,-2.75203)"
   spreadMethod="pad"
   x1="0"
   y1="0"
   x2="1"
   y2="0" /><linearGradient
   x1="0"
   y1="0"
   x2="1"
   y2="0"
   gradientUnits="userSpaceOnUse"
   gradientTransform="matrix(0,307.526,307.526,0,210.375,-2.75203)"
   spreadMethod="pad"
   id="linearGradient80-1"><stop
     style="stop-opacity:1;stop-color:#e94a86"
     offset="0"
     id="stop82-8" /><stop
     style="stop-opacity:1;stop-color:#e9436c"
     offset="1"
     id="stop84-6" /></linearGradient><clipPath
   clipPathUnits="userSpaceOnUse"
   id="clipPath92-5"><path
     d="m 3756.67,2101.73 0,0 c -18.85,18.91 -43.51,28.33 -68.26,28.34 -24.65,-0.01 -49.2,-9.34 -68.04,-28.11 l -14.04,14.09 0,0 c 22.65,22.59 52.39,33.91 82.03,33.91 l 0.05,0 0,0 0,0 0.04,0 c 29.78,0 59.63,-11.43 82.31,-34.19 l 0,0 -14.09,-14.04"
     id="path94-0"
     inkscape:connector-curvature="0" /></clipPath><linearGradient
   inkscape:collect="always"
   xlink:href="#linearGradient96-5"
   id="linearGradient3234-6"
   gradientUnits="userSpaceOnUse"
   gradientTransform="matrix(0,307.526,307.526,0,210.375,-2.75203)"
   spreadMethod="pad"
   x1="0"
   y1="0"
   x2="1"
   y2="0" /><linearGradient
   x1="0"
   y1="0"
   x2="1"
   y2="0"
   gradientUnits="userSpaceOnUse"
   gradientTransform="matrix(0,307.526,307.526,0,210.375,-2.75203)"
   spreadMethod="pad"
   id="linearGradient96-5"><stop
     style="stop-opacity:1;stop-color:#ef759f"
     offset="0"
     id="stop98-2" /><stop
     style="stop-opacity:1;stop-color:#ee6562"
     offset="1"
     id="stop100-4" /></linearGradient><clipPath
   clipPathUnits="userSpaceOnUse"
   id="clipPath108-0"><path
     d="m 3779.84,2124.82 c -25.25,25.32 -58.3,37.95 -91.44,37.97 -33,-0.02 -65.9,-12.53 -91.12,-37.65 l -14.04,14.09 0,0 c 29.04,28.94 67.12,43.45 105.11,43.45 0.02,0 0.03,0 0.05,0 0.01,0 0.03,0 0.05,0 38.16,0 76.41,-14.64 105.48,-43.82 l 0,0 -14.09,-14.04"
     id="path110-6"
     inkscape:connector-curvature="0" /></clipPath><linearGradient
   inkscape:collect="always"
   xlink:href="#linearGradient112-2"
   id="linearGradient3236-5"
   gradientUnits="userSpaceOnUse"
   gradientTransform="matrix(0,307.526,307.526,0,210.375,-2.75203)"
   spreadMethod="pad"
   x1="0"
   y1="0"
   x2="1"
   y2="0" /><linearGradient
   x1="0"
   y1="0"
   x2="1"
   y2="0"
   gradientUnits="userSpaceOnUse"
   gradientTransform="matrix(0,307.526,307.526,0,210.375,-2.75203)"
   spreadMethod="pad"
   id="linearGradient112-2"><stop
     style="stop-opacity:1;stop-color:#f4a2bb"
     offset="0"
     id="stop114-1" /><stop
     style="stop-opacity:1;stop-color:#f28655"
     offset="1"
     id="stop116-5" /></linearGradient><linearGradient
   inkscape:collect="always"
   xlink:href="#linearGradient28"
   id="linearGradient5223"
   x1="293.96542"
   y1="982.66431"
   x2="293.96542"
   y2="2328.9011"
   gradientUnits="userSpaceOnUse" /><linearGradient
   inkscape:collect="always"
   xlink:href="#linearGradient28"
   id="linearGradient4200"
   gradientUnits="userSpaceOnUse"
   x1="293.96542"
   y1="982.66431"
   x2="293.96542"
   y2="2328.9011" /><linearGradient
   inkscape:collect="always"
   xlink:href="#linearGradient28"
   id="linearGradient4289"
   gradientUnits="userSpaceOnUse"
   x1="293.96542"
   y1="982.66431"
   x2="293.96542"
   y2="2328.9011"
   gradientTransform="scale(0.1,0.1)" /><linearGradient
   inkscape:collect="always"
   xlink:href="#linearGradient80-1"
   id="linearGradient4932"
   gradientUnits="userSpaceOnUse"
   gradientTransform="matrix(0,307.526,307.526,0,210.375,-2.75203)"
   spreadMethod="pad"
   x1="0"
   y1="0"
   x2="1"
   y2="0" /><linearGradient
   inkscape:collect="always"
   xlink:href="#linearGradient96-5"
   id="linearGradient4934"
   gradientUnits="userSpaceOnUse"
   gradientTransform="matrix(0,307.526,307.526,0,210.375,-2.75203)"
   spreadMethod="pad"
   x1="0"
   y1="0"
   x2="1"
   y2="0" /><linearGradient
   inkscape:collect="always"
   xlink:href="#linearGradient112-2"
   id="linearGradient4936"
   gradientUnits="userSpaceOnUse"
   gradientTransform="matrix(0,307.526,307.526,0,210.375,-2.75203)"
   spreadMethod="pad"
   x1="0"
   y1="0"
   x2="1"
   y2="0" />









</defs><sodipodi:namedview
     pagecolor="#ffffff"
     bordercolor="#666666"
     borderopacity="1"
     objecttolerance="10"
     gridtolerance="10"
     guidetolerance="10"
     inkscape:pageopacity="0"
     inkscape:pageshadow="2"
     inkscape:window-width="1600"
     inkscape:window-height="838"
     id="namedview4"
     showgrid="false"
     showguides="true"
     inkscape:guide-bbox="true"
     inkscape:zoom="1.4247736"
     inkscape:cx="272.07314"
     inkscape:cy="209.18719"
     inkscape:window-x="-8"
     inkscape:window-y="-8"
     inkscape:window-maximized="1"
     inkscape:current-layer="g10"
     inkscape:document-units="mm"
     units="mm"><sodipodi:guide
       orientation="1,0"
       position="44.589673,230.19419"
       id="guide3219" /><sodipodi:guide
       orientation="1,0"
       position="418.58555,239.11212"
       id="guide3221" /><sodipodi:guide
       orientation="1,0"
       position="-3.5433071,0"
       id="guide3092" /><sodipodi:guide
       orientation="0,1"
       position="-3.5433071,375.59055"
       id="guide3094" /><sodipodi:guide
       orientation="1,0"
       position="529.72441,375.59055"
       id="guide3096" /><sodipodi:guide
       orientation="0,1"
       position="529.72441,-3.5433071"
       id="guide3098" /><sodipodi:guide
       orientation="1,0"
       position="0,0"
       id="guide3112" /><sodipodi:guide
       orientation="0,1"
       position="0,372.04724"
       id="guide3114" /><sodipodi:guide
       orientation="0,1"
       position="526.1811,0"
       id="guide3116" /><sodipodi:guide
       orientation="1,0"
       position="526.1811,372.04724"
       id="guide3118" /><sodipodi:guide
       orientation="1,0"
       position="14.173228,357.87402"
       id="guide3139" /><sodipodi:guide
       orientation="0,1"
       position="512.00787,357.87402"
       id="guide3141" /><sodipodi:guide
       orientation="1,0"
       position="512.00787,14.173228"
       id="guide3143" /><sodipodi:guide
       orientation="0,1"
       position="14.173228,14.173228"
       id="guide3145" /></sodipodi:namedview><g
     id="g10"
     inkscape:groupmode="layer"
     inkscape:label="ink_ext_XXXXXX"
     transform="matrix(1.25,0,0,-1.25,0,372.04718)"><path
   d="m -2.8346457,-2.8346919 0,303.3070819 426.6141757,0 0,-303.3070819 z"
   style="fill:url(#linearGradient4289);fill-opacity:1;fill-rule:nonzero;stroke:none"
   id="path34"
   inkscape:connector-curvature="0"
   sodipodi:nodetypes="ccccc" /><path
   sodipodi:nodetypes="cccccccccccccccccccccc"
   inkscape:connector-curvature="0"
   id="path36"
   style="fill:#e52071;fill-opacity:1;fill-rule:nonzero;stroke:none"
   d="m 23.4742,104.212 0,-5.028 -11.2726,0 0,-19.5551 -15.0362457,-0.891793 0,-44.722272 0,-36.8495269 426.6141757,0 0,87.5766889 -138.02553,4.193903 -2.367,2.2082 -8.911,0 -5.709,-5.5211 -9.468,0.4129 -0.42,13.1141 -3.897,0.6898 -3.9,-0.9648 0,-13.1141 -9.33,0.4129 -12.252,-0.8258 -200.3902,2.661 0,16.761" /><g
   transform="matrix(0.1,0,0,0.1,0,-3.2)"
   id="g38"><g
     clip-path="url(#clipPath42)"
     id="g40"><path
       inkscape:connector-curvature="0"
       id="path46"
       style="fill:#ffffff;fill-opacity:1;fill-rule:nonzero;stroke:none"
       d="m 163.488,2578.22 c 0,94.15 76.321,170.46 170.465,170.46 94.145,0 170.465,-76.31 170.465,-170.46 0,-94.15 -76.32,-170.46 -170.465,-170.46 -94.144,0 -170.465,76.31 -170.465,170.46" /><path
       inkscape:connector-curvature="0"
       id="path48"
       style="fill:#ffffff;fill-opacity:1;fill-rule:nonzero;stroke:none"
       d="m 324.52,2645.67 c 0,136.99 110.582,248.03 246.992,248.03 136.41,0 246.992,-111.04 246.992,-248.03 0,-136.98 -110.582,-248.03 -246.992,-248.03 -136.41,0 -246.992,111.05 -246.992,248.03" /><path
       inkscape:connector-curvature="0"
       id="path50"
       style="fill:none;stroke:#e31172;stroke-width:6.69438982;stroke-linecap:butt;stroke-linejoin:miter;stroke-miterlimit:3.86400008;stroke-opacity:1;stroke-dasharray:none"
       d="m 200.492,2578.22 c 0,74.02 59.75,134.03 133.461,134.03 73.707,0 133.461,-60.01 133.461,-134.03 0,-74.02 -59.754,-134.02 -133.461,-134.02 -73.711,0 -133.461,60 -133.461,134.02 z" /><path
       inkscape:connector-curvature="0"
       id="path52"
       style="fill:#f9a71b;fill-opacity:1;fill-rule:nonzero;stroke:none"
       d="m 505,2608.64 56.504,56.76 53.211,0 -37.668,-37.84 75.402,0 0,-37.83 -75.402,-0.01 37.668,-37.84 -53.211,0" /><path
       inkscape:connector-curvature="0"
       id="path54"
       style="fill:#f9a71b;fill-opacity:1;fill-rule:nonzero;stroke:none"
       d="m 337.41,2608.64 -33.371,33.52 -31.43,0 22.246,-22.34 -44.527,0 0,-22.36 44.527,0.01 -22.246,-22.35 31.43,0" /><path
       inkscape:connector-curvature="0"
       id="path56"
       style="fill:none;stroke:#e31172;stroke-width:40.21310043;stroke-linecap:butt;stroke-linejoin:miter;stroke-miterlimit:3.86400008;stroke-opacity:1;stroke-dasharray:none"
       d="m 384.668,2645.67 c 0,103.63 83.652,187.63 186.844,187.63 103.191,0 186.843,-84 186.843,-187.63 0,-103.63 -83.652,-187.63 -186.843,-187.63 -103.192,0 -186.844,84 -186.844,187.63 z" /><path
       inkscape:connector-curvature="0"
       id="path58"
       style="fill:none;stroke:#e31172;stroke-width:6.69438982;stroke-linecap:butt;stroke-linejoin:miter;stroke-miterlimit:3.86400008;stroke-opacity:1;stroke-dasharray:none"
       d="m 428.32,2645.67 c 0,79.42 64.11,143.79 143.192,143.79 79.082,0 143.187,-64.37 143.187,-143.79 0,-79.41 -64.105,-143.79 -143.187,-143.79 -79.082,0 -143.192,64.38 -143.192,143.79 z" /></g></g><g
   transform="translate(0,-4.8)"
   id="g140"><text
   id="text142"
   transform="matrix(1,0,0,-1,35.0785,220.573)"><tspan
     id="tspan144"
     sodipodi:role="line"
     y="0"
     x="0"
     style="font-size:14.30000019px;font-variant:normal;font-weight:bold;writing-mode:lr-tb;fill:#231f20;fill-opacity:1;fill-rule:nonzero;stroke:none;font-family:Oswald;-inkscape-font-specification:Oswald-Bold">Freifunk sucht Mitmacher für ein freies WLAN-Netz</tspan></text>






<text
   y="-203.69411"
   x="35.322498"
   id="text146"
   transform="scale(1,-1)"
   style="font-size:8.80000019px"><tspan
     id="tspan158"
     sodipodi:role="line"
     y="-203.69411"
     x="35.322498"
     style="font-size:8.80000019px;font-variant:normal;font-weight:300;writing-mode:lr-tb;fill:#231f20;fill-opacity:1;fill-rule:nonzero;stroke:none;font-family:Roboto;-inkscape-font-specification:Roboto-Light">In der Freifunk-Community schließen sich Menschen zusammen, um ein nicht-</tspan><tspan
     id="tspan3238"
     sodipodi:role="line"
     y="-192.69411"
     x="35.322498"
     style="font-size:8.80000019px;font-variant:normal;font-weight:300;writing-mode:lr-tb;fill:#231f20;fill-opacity:1;fill-rule:nonzero;stroke:none;font-family:Roboto;-inkscape-font-specification:Roboto-Light">kommerzielles Netz mit Hilfe von WLAN-Routern aufzubauen. Jeder Freifunker</tspan><tspan
     sodipodi:role="line"
     y="-181.69411"
     x="35.322498"
     style="font-size:8.80000019px;font-variant:normal;font-weight:300;writing-mode:lr-tb;fill:#231f20;fill-opacity:1;fill-rule:nonzero;stroke:none;font-family:Roboto;-inkscape-font-specification:Roboto-Light"
     id="tspan3146">stellt einen separaten WLAN-Router für den freien Datentransfer anderer </tspan><tspan
     id="tspan3240"
     sodipodi:role="line"
     y="-170.69411"
     x="35.322498"
     style="font-size:8.80000019px;font-variant:normal;font-weight:300;writing-mode:lr-tb;fill:#231f20;fill-opacity:1;fill-rule:nonzero;stroke:none;font-family:Roboto;-inkscape-font-specification:Roboto-Light">Teilnehmer zur Verfügung und kann z.B. den eigenen Internetzugang teilen. So </tspan><tspan
     id="tspan3242"
     sodipodi:role="line"
     y="-159.69411"
     x="35.322498"
     style="font-size:8.80000019px;font-variant:normal;font-weight:300;writing-mode:lr-tb;fill:#231f20;fill-opacity:1;fill-rule:nonzero;stroke:none;font-family:Roboto;-inkscape-font-specification:Roboto-Light">entsteht ein Gemeinschaftsnetz, das von jedem kostenfrei genutzt werden kann.</tspan></text>






</g><text
   transform="scale(1,-1)"
   id="text162"
   x="35.671738"
   y="-28.591942"><tspan
     y="-28.591942"
     x="35.671738"
     style="font-size:25px;font-variant:normal;font-weight:bold;writing-mode:lr-tb;fill:#ffffff;fill-opacity:1;fill-rule:nonzero;stroke:none;font-family:Oswald;-inkscape-font-specification:Oswald-Bold"
     sodipodi:role="line"
     id="tspan164">Mach mit unter westpfalz.freifunk.net</tspan></text>

<text
   style="font-size:11.08698463px"
   transform="scale(0.92391538,-1.0823502)"
   id="text166"
   x="35.145786"
   y="-6.0410542"><tspan
     y="-6.0410542"
     x="35.145786"
     style="font-size:8.8695879px;font-variant:normal;font-weight:normal;writing-mode:lr-tb;fill:#ffffff;fill-opacity:1;fill-rule:nonzero;stroke:none;font-family:Roboto;-inkscape-font-specification:Roboto"
     sodipodi:role="line"
     id="tspan168" /></text>

<g
   transform="matrix(0.1,0,0,0.1,0,4.8)"
   id="g3208"><path
     d="m 468.82,1016.3 3386.3,177.47 -1.05,19.97 -3386.297,-177.46"
     style="fill:#e31172;fill-opacity:1;fill-rule:nonzero;stroke:none"
     id="path170"
     inkscape:connector-curvature="0" /><path
     d="m 480.785,1395.51 c 0,0 -120,0 -120,-120 l 0,-649.44 c 0,0 0,-120 120,-120 l 792.365,0 c 0,0 120,0 120,120 l 0,649.44 c 0,0 0,120 -120,120 l -792.365,0"
     style="fill:#ffffff;fill-opacity:1;fill-rule:nonzero;stroke:none"
     id="path172"
     inkscape:connector-curvature="0" /><path
     d="m 480.785,1395.51 0,10 c -0.832,-0.05 -32.058,0.06 -64.469,-16.06 -16.175,-8.07 -32.699,-20.41 -45.097,-39.02 -12.426,-18.59 -20.461,-43.27 -20.434,-74.92 l 0,-649.44 c 0.055,-0.84 -0.062,-32.07 16.059,-64.48 8.078,-16.168 20.414,-32.692 39.019,-45.102 18.59,-12.418 43.278,-20.449 74.922,-20.418 l 792.365,0 c 0.83,0.051 32.06,-0.07 64.47,16.051 16.17,8.078 32.7,20.41 45.1,39.02 12.42,18.589 20.46,43.281 20.43,74.929 l 0,649.44 c -0.05,0.83 0.06,32.06 -16.06,64.47 -8.07,16.18 -20.41,32.7 -39.02,45.1 -18.59,12.42 -43.27,20.46 -74.92,20.43 l -792.365,0 0,-20 792.365,0 c 28.35,-0.03 48.67,-6.99 63.83,-17.07 22.67,-15.08 34.33,-38.06 40.26,-57.83 2.96,-9.85 4.45,-18.78 5.18,-25.17 0.37,-3.2 0.55,-5.76 0.64,-7.48 l 0.08,-1.93 0.01,-0.44 0,-649.52 c -0.03,-28.359 -6.99,-48.672 -17.07,-63.832 -15.08,-22.668 -38.06,-34.34 -57.84,-40.269 -9.84,-2.949 -18.77,-4.438 -25.16,-5.18 -3.2,-0.367 -5.76,-0.551 -7.48,-0.641 l -1.93,-0.078 -792.885,0 c -28.351,0.02 -48.664,6.989 -63.824,17.071 -22.672,15.078 -34.332,38.058 -40.266,57.828 -2.957,9.84 -4.445,18.781 -5.183,25.172 -0.367,3.187 -0.551,5.75 -0.641,7.48 l -0.074,1.918 -0.008,0.449 -0.004,0.082 0,649.44 c 0.031,28.35 6.996,48.67 17.074,63.83 15.079,22.67 38.059,34.33 57.832,40.26 9.844,2.96 18.778,4.45 25.168,5.19 3.196,0.36 5.754,0.55 7.481,0.63 l 1.926,0.08 0.449,0.01 0.07,0 0,10"
     style="fill:#e31172;fill-opacity:1;fill-rule:nonzero;stroke:none"
     id="path190"
     inkscape:connector-curvature="0" /><path
     d="m 1767.01,1395.51 c 0,0 -120,0 -120,-120 l 0,-649.44 c 0,0 0,-120 120,-120 l 792.36,0 c 0,0 120,0 120,120 l 0,649.44 c 0,0 0,120 -120,120 l -792.36,0"
     style="fill:#ffffff;fill-opacity:1;fill-rule:nonzero;stroke:none"
     id="path192"
     inkscape:connector-curvature="0" /><path
     d="m 1767.01,1395.51 0,10 c -0.84,-0.05 -32.06,0.06 -64.47,-16.06 -16.18,-8.07 -32.7,-20.41 -45.1,-39.02 -12.43,-18.59 -20.46,-43.27 -20.43,-74.92 l 0,-649.44 c 0.05,-0.84 -0.07,-32.07 16.05,-64.48 8.08,-16.168 20.42,-32.692 39.03,-45.102 18.58,-12.418 43.27,-20.449 74.92,-20.418 l 792.36,0 c 0.83,0.051 32.06,-0.07 64.47,16.051 16.18,8.078 32.7,20.41 45.1,39.02 12.42,18.589 20.46,43.281 20.43,74.929 l 0,649.44 c -0.05,0.83 0.06,32.06 -16.06,64.47 -8.07,16.18 -20.41,32.7 -39.02,45.1 -18.59,12.42 -43.27,20.46 -74.92,20.43 l -792.36,0 0,-20 792.36,0 c 28.35,-0.03 48.67,-6.99 63.83,-17.07 22.67,-15.08 34.33,-38.06 40.26,-57.83 2.96,-9.85 4.45,-18.78 5.19,-25.17 0.36,-3.2 0.55,-5.76 0.63,-7.48 l 0.08,-1.93 0.01,-0.44 0,-649.52 c -0.03,-28.359 -6.99,-48.672 -17.07,-63.832 -15.08,-22.668 -38.06,-34.34 -57.83,-40.269 -9.85,-2.949 -18.78,-4.438 -25.17,-5.18 -3.2,-0.367 -5.76,-0.551 -7.48,-0.641 l -1.93,-0.078 -792.88,0 c -28.35,0.02 -48.67,6.989 -63.83,17.071 -22.67,15.078 -34.33,38.058 -40.27,57.828 -2.95,9.84 -4.44,18.781 -5.18,25.172 -0.37,3.187 -0.55,5.75 -0.64,7.48 l -0.07,1.918 -0.01,0.449 0,649.522 c 0.03,28.35 6.99,48.67 17.07,63.83 15.08,22.67 38.06,34.33 57.83,40.26 9.85,2.96 18.78,4.45 25.17,5.19 3.2,0.36 5.76,0.55 7.48,0.63 l 1.93,0.08 0.44,0.01 0.08,0 0,10"
     style="fill:#e31172;fill-opacity:1;fill-rule:nonzero;stroke:none"
     id="path210"
     inkscape:connector-curvature="0" /><path
     d="m 3053.23,1395.51 c 0,0 -120,0 -120,-120 l 0,-649.44 c 0,0 0,-120 120,-120 l 792.36,0 c 0,0 120,0 120,120 l 0,649.44 c 0,0 0,120 -120,120 l -792.36,0"
     style="fill:#ffffff;fill-opacity:1;fill-rule:nonzero;stroke:none"
     id="path212"
     inkscape:connector-curvature="0" /><path
     d="m 3053.23,1395.51 0,10 c -0.84,-0.05 -32.06,0.06 -64.47,-16.06 -16.18,-8.07 -32.7,-20.41 -45.1,-39.02 -12.43,-18.59 -20.46,-43.27 -20.43,-74.92 l 0,-649.44 c 0.05,-0.84 -0.07,-32.07 16.05,-64.48 8.08,-16.168 20.42,-32.692 39.03,-45.102 18.58,-12.418 43.27,-20.449 74.92,-20.418 l 792.36,0 c 0.83,0.051 32.06,-0.07 64.47,16.051 16.18,8.078 32.7,20.41 45.1,39.02 12.42,18.589 20.46,43.281 20.43,74.929 l 0,649.44 c -0.05,0.83 0.06,32.06 -16.06,64.47 -8.07,16.18 -20.41,32.7 -39.02,45.1 -18.59,12.42 -43.27,20.46 -74.92,20.43 l -792.36,0 0,-20 792.36,0 c 28.35,-0.03 48.67,-6.99 63.83,-17.07 22.67,-15.08 34.33,-38.06 40.26,-57.83 2.96,-9.85 4.45,-18.78 5.19,-25.17 0.36,-3.2 0.55,-5.76 0.64,-7.48 l 0.07,-1.93 0.01,-0.44 0,-649.52 c -0.03,-28.359 -6.99,-48.672 -17.07,-63.832 -15.08,-22.668 -38.06,-34.34 -57.83,-40.269 -9.85,-2.949 -18.78,-4.438 -25.17,-5.18 -3.2,-0.367 -5.76,-0.551 -7.48,-0.641 l -1.93,-0.078 -792.88,0 c -28.35,0.02 -48.67,6.989 -63.83,17.071 -22.67,15.078 -34.33,38.058 -40.27,57.828 -2.95,9.84 -4.44,18.781 -5.18,25.172 -0.37,3.187 -0.55,5.75 -0.64,7.48 l -0.07,1.918 -0.01,0.449 0,649.522 c 0.03,28.35 6.99,48.67 17.07,63.83 15.08,22.67 38.06,34.33 57.83,40.26 9.85,2.96 18.78,4.45 25.17,5.19 3.2,0.36 5.76,0.55 7.48,0.63 l 1.93,0.08 0.44,0.01 0.08,0 0,10"
     style="fill:#e31172;fill-opacity:1;fill-rule:nonzero;stroke:none"
     id="path232"
     inkscape:connector-curvature="0" /></g><g
   transform="translate(0,8)"
   id="g174"><text
   transform="scale(1,-1)"
   sodipodi:linespacing="125%"
   id="text4023"
   y="-114.84545"
   x="88.337776"
   style="font-size:9px;font-style:normal;font-variant:normal;font-weight:normal;font-stretch:normal;text-align:center;line-height:125%;letter-spacing:0px;word-spacing:0px;text-anchor:middle;fill:#000000;fill-opacity:1;stroke:none;font-family:Roboto;-inkscape-font-specification:Roboto"
   xml:space="preserve"><tspan
     style="font-size:10.39999962px;font-style:normal;font-variant:normal;font-weight:normal;font-stretch:normal;font-family:Roboto Cn;-inkscape-font-specification:Roboto Cn"
     y="-114.84545"
     x="88.337776"
     id="tspan4025"
     sodipodi:role="line"><tspan
   id="tspan4042"
   style="font-size:10.39999962px;fill:#e52071;fill-opacity:1;font-family:Roboto Cn;-inkscape-font-specification:Roboto Cn">Privatpersonen</tspan>,</tspan><tspan
     style="font-size:10.39999962px;font-style:normal;font-variant:normal;font-weight:normal;font-stretch:normal;font-family:Roboto Cn;-inkscape-font-specification:Roboto Cn"
     id="tspan4027"
     y="-101.84545"
     x="88.337776"
     sodipodi:role="line">die einen Freifunk-</tspan><tspan
     style="font-size:10.39999962px;font-style:normal;font-variant:normal;font-weight:normal;font-stretch:normal;font-family:Roboto Cn;-inkscape-font-specification:Roboto Cn"
     id="tspan4029"
     y="-88.845451"
     x="88.337776"
     sodipodi:role="line">Router aufstellen</tspan><tspan
     style="font-size:10.39999962px;font-style:normal;font-variant:normal;font-weight:normal;font-stretch:normal;font-family:Roboto Cn;-inkscape-font-specification:Roboto Cn"
     id="tspan4031"
     y="-75.845451"
     x="88.337776"
     sodipodi:role="line">und Teil des Netzes</tspan><tspan
     style="font-size:10.39999962px;font-style:normal;font-variant:normal;font-weight:normal;font-stretch:normal;font-family:Roboto Cn;-inkscape-font-specification:Roboto Cn"
     id="tspan4033"
     y="-62.845455"
     x="88.337776"
     sodipodi:role="line">werden.</tspan></text>






</g><text
   transform="scale(1,-1)"
   sodipodi:linespacing="125%"
   id="text4035"
   y="-123.08273"
   x="215.63065"
   style="font-size:10.39999962px;font-style:normal;font-variant:normal;font-weight:normal;font-stretch:normal;text-align:center;line-height:125%;letter-spacing:0px;word-spacing:0px;text-anchor:middle;fill:#000000;fill-opacity:1;stroke:none;font-family:Roboto Cn;-inkscape-font-specification:Roboto Cn"
   xml:space="preserve"><tspan
     style="font-size:10.39999962px;font-style:normal;font-variant:normal;font-weight:normal;font-stretch:normal;text-align:center;text-anchor:middle;font-family:Roboto Cn;-inkscape-font-specification:Roboto Cn"
     y="-123.08273"
     x="215.63065"
     id="tspan4037"
     sodipodi:role="line"><tspan
   id="tspan4044"
   style="font-size:10.39999962px;fill:#e52071;fill-opacity:1;font-family:Roboto Cn;-inkscape-font-specification:Roboto Cn">Unternehmer</tspan> und</tspan><tspan
     id="tspan4039"
     style="font-size:10.39999962px;font-style:normal;font-variant:normal;font-weight:normal;font-stretch:normal;text-align:center;text-anchor:middle;font-family:Roboto Cn;-inkscape-font-specification:Roboto Cn"
     y="-110.08273"
     x="215.63065"
     sodipodi:role="line"><tspan
   id="tspan4046"
   style="font-size:10.39999962px;fill:#e52071;fill-opacity:1;font-family:Roboto Cn;-inkscape-font-specification:Roboto Cn">Gastronomen</tspan>, die</tspan><tspan
     id="tspan4041"
     style="font-size:10.39999962px;font-style:normal;font-variant:normal;font-weight:normal;font-stretch:normal;text-align:center;text-anchor:middle;font-family:Roboto Cn;-inkscape-font-specification:Roboto Cn"
     y="-97.082733"
     x="215.63065"
     sodipodi:role="line">Freifunk-Hotspots</tspan><tspan
     id="tspan4043"
     style="font-size:10.39999962px;font-style:normal;font-variant:normal;font-weight:normal;font-stretch:normal;text-align:center;text-anchor:middle;font-family:Roboto Cn;-inkscape-font-specification:Roboto Cn"
     y="-84.082733"
     x="215.63065"
     sodipodi:role="line">zur Verfügung</tspan><tspan
     id="tspan4045"
     style="font-size:10.39999962px;font-style:normal;font-variant:normal;font-weight:normal;font-stretch:normal;text-align:center;text-anchor:middle;font-family:Roboto Cn;-inkscape-font-specification:Roboto Cn"
     y="-71.082733"
     x="215.63065"
     sodipodi:role="line">stellen.</tspan></text>









<g
   id="g4891"><g
     transform="matrix(0.1,0,0,0.1,4.0720213,18.051824)"
     id="g3150"><g
       id="g60"><g
         id="g62"
         clip-path="url(#clipPath64-9)"><path
           d="m 3688.42,2050.05 c 9.04,-0.01 16.35,-7.35 16.33,-16.38 -0.01,-9.03 -7.35,-16.35 -16.38,-16.33 -9.03,0.01 -16.34,7.35 -16.33,16.38 0.01,9.04 7.36,16.35 16.38,16.33"
           style="fill:#e52071;fill-opacity:1;fill-rule:nonzero;stroke:none"
           id="path68"
           inkscape:connector-curvature="0" /><path
           d="m 3652.52,2069.71 c 9.89,9.87 22.94,14.84 35.88,14.83 13.01,0.01 26.11,-5.01 36.01,-14.95 l -14.08,-14.05 c -6.08,6.08 -13.96,9.09 -21.93,9.1 -7.93,-0.01 -15.78,-2.99 -21.84,-9.02 l -14.04,14.09"
           style="fill:#e52071;fill-opacity:1;fill-rule:nonzero;stroke:none"
           id="path70"
           inkscape:connector-curvature="0" /></g></g><g
       id="g72"><g
         id="g74"
         clip-path="url(#clipPath76-2)"><path
           d="m 3733.49,2078.63 0,0 c -12.46,12.5 -28.73,18.72 -45.09,18.73 -16.29,-0.01 -32.49,-6.17 -44.94,-18.57 l -14.04,14.09 c 16.26,16.22 37.64,24.37 58.93,24.37 l 0.05,0 0.05,0 c 21.38,0 42.85,-8.23 59.13,-24.57 l 0,-0.01 -14.09,-14.04"
           style="fill:url(#linearGradient4932);fill-opacity:1;fill-rule:nonzero;stroke:none"
           id="path86"
           inkscape:connector-curvature="0" /></g></g><g
       id="g88"><g
         id="g90"
         clip-path="url(#clipPath92-5)"><path
           d="m 3756.67,2101.73 0,0 c -18.85,18.91 -43.51,28.33 -68.26,28.34 -24.65,-0.01 -49.2,-9.34 -68.04,-28.11 l -14.04,14.09 0,0 c 22.65,22.59 52.39,33.91 82.03,33.91 l 0.05,0 0.04,0 c 29.78,0 59.63,-11.43 82.31,-34.19 l 0,0 -14.09,-14.04"
           style="fill:url(#linearGradient4934);fill-opacity:1;fill-rule:nonzero;stroke:none"
           id="path102"
           inkscape:connector-curvature="0" /></g></g><g
       id="g104"><g
         id="g106"
         clip-path="url(#clipPath108-0)"><path
           d="m 3779.84,2124.82 c -25.25,25.32 -58.3,37.95 -91.44,37.97 -33,-0.02 -65.9,-12.53 -91.12,-37.65 l -14.04,14.09 0,0 c 29.04,28.94 67.12,43.45 105.11,43.45 0.02,0 0.03,0 0.05,0 0.01,0 0.03,0 0.05,0 38.16,0 76.41,-14.64 105.48,-43.82 l 0,0 -14.09,-14.04"
           style="fill:url(#linearGradient4936);fill-opacity:1;fill-rule:nonzero;stroke:none"
           id="path118"
           inkscape:connector-curvature="0" /></g></g></g><path
     style="fill:#e31172;fill-opacity:1;fill-rule:evenodd;stroke:none"
     inkscape:connector-curvature="0"
     id="path3449"
     d="m 356.53865,215.16844 c 0,0 -0.27365,-0.27278 -0.54643,-0.054 -0.27277,0.21875 -0.87498,1.58526 -0.87498,1.58526 v 0.76518 l -0.054,0.38346 -0.38259,0.38258 c 0,0 -0.60221,0.65624 -0.16471,1.91381 0.43749,1.2574 1.14863,2.62461 1.69593,3.00711 0.54556,0.38294 1.53035,0.71053 1.53035,0.71053 l 0.60134,0.16428 0.76605,0.0549 c 0,0 0.10893,0.27365 1.20266,-0.2191 1.09373,-0.49144 1.53123,-0.9298 2.35044,-1.74927 0.82095,-0.81999 1.03969,-0.9298 1.09373,-1.53105 0.0558,-0.60125 0,-1.31265 0,-1.31265 0,0 -0.10981,-0.43723 0.1098,-0.87472 0.21875,-0.4375 0.4924,-0.32769 0.10894,-0.92989 -0.38259,-0.60047 -0.76517,-1.03796 -0.76517,-1.03796 l -0.4375,-0.43749 c 0,0 -0.21874,0.27365 -0.21874,-0.16471 0,-0.43662 -0.21875,-1.03883 -0.21875,-1.03883 l 0.21875,-2.2964 c 0,0 0.16384,-0.16384 0.76605,-0.27365 0.60133,-0.10894 1.47631,-0.65537 2.35043,-0.65537 h 1.03969 c 0,0 0.27278,-0.32768 -0.43836,-0.5473 -0.71027,-0.21874 -0.82008,-0.21874 -0.38259,-0.49152 0.4375,-0.27365 1.25758,-0.5473 1.25758,-0.5473 0,0 1.14863,-0.16385 1.80487,-0.71115 0.65624,-0.54643 2.02275,-3.06157 2.02275,-3.38926 0,-0.32768 0.76517,-0.71114 0.5473,-1.09373 -0.21962,-0.38258 -0.27365,-0.60133 -0.27365,-0.60133 0,0 0.054,-0.43836 0.38259,-0.92989 0.32855,-0.49152 0.87498,-2.13256 1.03882,-2.62495 0.16384,-0.49153 0.10981,-0.76518 0.38346,-1.53035 0.27278,-0.76518 0.32769,-1.64104 0.16384,-1.85891 -0.16384,-0.21875 -0.0549,-0.76605 -0.32855,-1.42229 -0.27365,-0.65536 -0.0549,-0.98392 -0.4924,-1.3116 -0.43662,-0.32769 -1.36651,-0.65624 -1.36651,-0.65624 0,0 -0.38259,-0.0549 -0.38259,-0.0549 0,0 0.0549,-1.14777 0.21788,-1.85891 0.16471,-0.71027 0,-1.85978 0.5473,-3.39013 0.5473,-1.53122 0.98392,-4.37405 0.98392,-4.37405 0,0 -0.32768,-0.82008 -0.82008,-1.31248 -0.4924,-0.4924 -2.84283,-1.20267 -2.84283,-1.20267 0,0 0.38259,-8.14677 0.10894,-9.2954 -0.27365,-1.14777 -0.43749,-1.85978 -0.71114,-2.02362 -0.27365,-0.16384 0.21874,-3.00667 0.0549,-3.66291 -0.16384,-0.65624 -0.32855,-2.46024 -0.32855,-2.46024 l 0.16471,-1.20354 c 0,0 0.4924,-0.54643 0.4924,-0.54643 l 0.10893,-1.14776 c 0,0 -0.10893,-3.17226 -0.49239,-4.26512 -0.38172,-1.09373 -0.21875,-1.42228 -0.21875,-1.91468 0,-0.49153 -0.65537,-2.62408 -0.65537,-2.62408 l 0.38259,-3.06158 c 0,0 0.49153,-0.6022 0.49153,-0.6022 0,0 1.53122,-1.09286 2.07852,-1.47632 0.54643,-0.38259 2.13256,-1.47632 2.13256,-1.47632 0,0 0.65537,-0.54643 0.60133,-0.92902 -0.0549,-0.38259 -0.43749,-0.92902 -0.43749,-0.92902 0,0 -1.31248,-0.98479 -3.28119,-0.38345 -1.96785,0.60133 -5.03029,2.24149 -5.03029,2.24149 l -1.804,0.92989 c 0,0 -0.38259,0.4924 -0.38259,0.4924 l -0.0549,0.43749 c 0,0 0.27278,0.32768 0.27278,0.32768 l 0.27365,0.21875 v 0.49152 c 0,0 -0.60133,0.71115 -0.71114,1.20354 -0.10807,0.49153 -0.16297,8.58426 -0.054,9.7329 0.10981,1.14776 0.16471,2.02275 0.27278,2.3513 0.10981,0.32769 0.21874,0.60134 0.21874,0.60134 l -0.16384,0.71027 v 0.65624 l 0.4924,1.36738 c 0,0 -1.14777,4.42895 -1.14777,5.41288 0,0.98479 -0.21874,4.37405 -0.21874,4.37405 l -0.65711,2.24149 -0.21788,0.71114 c 0,0 -0.38346,-0.54643 -0.71114,-0.92988 -0.32768,-0.38172 -0.10981,-0.76431 -0.60133,-1.85804 -0.4924,-1.0946 -1.58613,-4.26511 -1.58613,-4.26511 l -0.87499,-3.44504 c 0,0 -0.76517,-7.76418 -0.76517,-7.76418 l -1.36738,-10.44317 v -1.31247 c 0,-0.32769 -0.82008,-1.53123 -0.87499,-1.91381 -0.054,-0.38346 0.38346,-0.65624 -0.16297,-1.25758 -0.5473,-0.60133 -0.71114,-1.47632 -1.31247,-1.42228 -0.60134,0.0549 -2.95264,0.10981 -3.33523,0.65711 -0.38259,0.5473 -0.10981,3.55397 -0.10981,3.55397 l 0.38346,0.54643 v 3.28032 l 2.13169,16.24038 c 0,0 -0.16385,2.13168 -0.16385,2.13168 l -0.21874,3.66378 c 0,0 0.43749,7.38159 0.43749,7.38159 l 0.21875,1.14864 c 0,0 -0.38259,0.54643 -0.38259,0.54643 l -1.03883,0.27278 0.38259,2.46111 c 0,0 1.69507,8.20167 1.69507,8.20167 l -0.71115,1.03796 -0.87411,5.79634 0.87411,7.38159 c 0,0 1.36738,1.25757 1.91469,1.53122 0.54642,0.27365 1.74909,1.09373 1.74909,1.09373 0,0 0.60134,0.71115 0.60134,0.71115 0,0 0.98392,0.87411 1.31247,1.03795 0.32769,0.16384 0.38259,0.27365 0.38259,0.27365 0,0 -0.21874,1.09373 -0.27365,1.53122 -0.054,0.4375 -0.4924,1.14777 -0.4924,1.14777 z" /><path
     style="fill:#e31172;fill-opacity:1;stroke:none"
     inkscape:connector-curvature="0"
     id="path3445"
     d="m 391.16403,194.32413 c 0.0532,0.0141 0.10471,0.0258 0.13546,0.0233 0.0133,-0.001 0.0283,-0.003 0.0424,-0.004 0,0 -0.17785,-0.0191 -0.17785,-0.0191 z m -5.33847,-25.21645 c -0.17368,-0.56509 -0.13046,-1.21662 -0.17368,-1.56398 -0.0432,-0.34736 -0.13047,-0.13047 -0.13047,-1.08614 0,-0.95567 -0.17368,-2.91023 -0.39057,-3.90912 -0.21773,-0.99971 -0.21773,-1.60718 -0.21773,-2.25953 0,-0.65153 -0.69473,-3.4745 -0.69473,-3.4745 l -0.0864,-1.26065 -0.0864,-0.4338 -0.044,1.99777 -0.26094,0.782 c 0,0 -0.78199,6.73291 -0.78199,7.16753 0,0.43463 -0.21689,1.21661 -0.21689,1.21661 l 0.17368,0.5651 0.13047,2.17145 0.2169,0.99972 c 0,0 0.26094,2.47643 0.43462,4.69193 0.17368,2.2155 0.73878,5.29941 0.73878,5.29941 l 0.17285,0.86925 c 0,0 0.47867,-1.52076 0.86924,-5.95176 0.34072,-3.85676 -0.19861,-2.78558 0.17368,-3.99638 0.17368,-0.56508 0.34737,-1.25982 0.17368,-1.82491 z m 8.55785,30.58233 -0.17369,0.17452 c 0,0 0.044,0.0432 0.21772,0.26095 0.17369,0.21688 -0.21772,0.30331 -0.26093,0.52021 -0.0441,0.21772 -0.8252,2.73737 -0.8252,2.73737 0,0 0.0864,0.5651 -0.0864,0.95568 -0.17452,0.39057 -0.0873,1.78087 -0.1313,2.65012 -0.0432,0.86842 -0.60747,1.38946 -1.17257,1.69445 -0.56509,0.30332 -1.29806,0.52271 -1.78087,0.47783 -2.05345,-0.19695 -1.96121,-0.25762 -0.69556,0.34737 0,0 0.0872,0.69473 0.2601,1.17257 0.17451,0.47783 -0.0424,0.26011 -0.17285,0.78198 -0.13047,0.52188 -0.044,0.52188 0.0432,1.12936 0.0873,0.60914 -0.0432,0.86925 -0.26093,1.13019 -0.2169,0.25928 -0.26012,0.0864 -0.26012,0.86841 0,0.78116 -0.39058,1.65124 -0.78198,3.64892 -0.39141,1.99844 -2.60691,4.17073 -3.08392,4.4743 -0.47866,0.30407 -1.13018,0.39116 -1.60801,0.39116 -0.47785,0 -0.91247,-0.30407 -0.91247,-0.30407 0,0 -0.65068,-0.13023 -1.08531,-0.17377 -0.43462,-0.0436 -0.99972,-0.69515 -1.52077,-1.3037 -0.52105,-0.60764 -1.2166,-2.43265 -1.4335,-3.7794 -0.2169,-1.34625 -0.13047,-1.82409 -0.47783,-3.21355 -0.34737,-1.39112 -0.65152,-1.9986 -0.65152,-1.9986 l 0.2601,-1.04293 1.49085,-0.91162 c 0,0 0.36149,-0.54267 0.36149,-0.54267 0,0 -1.20663,-0.60331 -2.54707,-0.84846 -1.24569,-0.2277 -1.3903,-0.5651 -1.73767,-2.51965 -0.34736,-1.95456 -0.52187,-5.38584 -0.82603,-7.90632 -0.30332,-2.51882 1.56481,-5.2562 1.82575,-5.56035 0.16288,-0.1903 0.60499,-0.18864 0.9133,-0.16121 0.14293,-2.39085 0.20027,-0.24017 -0.002,-2.35844 -0.0864,-0.91246 -0.2169,-1.95456 -0.2169,-1.95456 l -0.0872,-0.69556 c 0,0 -0.26011,-0.82437 -0.43462,-1.47672 -0.17285,-0.65152 0,-2.17228 0,-2.17228 0,0 0.044,-2.17229 0.044,-2.65012 v -1.17174 c 0,0 0.39058,-5.21381 0.69473,-7.47253 0.30415,-2.25871 0.43463,-5.47392 0.43463,-5.47392 l -0.0432,-0.34737 0.0864,-0.34737 -0.13047,-0.43462 c 0,0 0.044,-0.43378 0,-0.78198 -0.0432,-0.34737 -0.26011,-1.47756 -0.26011,-1.47756 0,0 0.13047,-1.04209 0.0432,-2.77975 -0.0872,-1.73767 0.43463,-5.0393 0.65153,-6.42877 0.21772,-1.3903 0.82603,-4.17088 0.99971,-5.29941 0.17369,-1.13019 0.12964,-0.78282 0.12964,-0.78282 l 0.30415,-0.2169 c 0,0 0.17618,-0.93821 -0.0108,-1.23323 -0.29917,-0.47035 -1.42188,-1.05206 -1.42188,-1.05206 l -0.12964,-1.08615 c 0,0 2.9094,0.11219 3.47367,0.15706 0.56508,0.0424 1.22908,-0.0914 1.88059,0.86426 0.65152,0.95651 0.37894,1.56814 0.37894,1.56814 l -0.13046,0.52105 0.0873,0.30415 0.30415,-0.30415 c 0,0 0.19196,-1.00887 0.82437,-2.12825 0.56509,-0.99972 1.08697,-0.73877 1.08697,-0.73877 l 0.86841,0.0864 0.30415,0.26095 c 0.26926,0.84597 0.23935,0.83766 0.82521,1.91133 0.52189,0.95568 0.0432,0.82604 0.0432,0.82604 l 0.82603,0.39058 0.95568,4.30053 0.17368,1.86813 0.30416,2.60607 0.2601,1.43351 c 0,0 0.13048,2.12907 0.13048,2.12907 0,0 0.43462,2.08503 0.56508,3.43128 0.13048,1.34708 -0.13046,1.26065 -0.17368,1.91135 -0.044,0.65235 0,0.7396 -0.17368,1.91217 -0.17369,1.1734 0.2169,2.38918 0.2169,2.38918 l 0.43379,4.25731 c 0,0 0.7396,4.90883 1.1734,6.47281 0.43462,1.56314 0.13047,1.91134 0.13047,3.30164 0,1.38947 0.0441,1.73766 0.0441,1.73766 0,0 -0.47868,2.25871 -0.9133,3.8659 -0.43462,1.60719 -0.477,1.60719 -0.52105,2.38919 -0.0416,0.75289 0.0764,1.4202 0.0848,1.4684 0.5975,-0.059 1.34958,-0.29501 1.34958,-0.29501 0,0 0.34653,0 0.73794,0.39058 0.39058,0.39141 0.65151,2.30276 0.73794,2.82381 0.0873,0.52105 0.1313,1.82491 0.1313,1.82491 l 0.17369,0.26094 c 0,0 -0.13047,0.34653 -0.13047,0.34653 h -10e-4 z" /></g><text
   transform="scale(1,-1)"
   sodipodi:linespacing="125%"
   id="text6057"
   y="-248.03328"
   x="90.945549"
   style="font-size:28.79999924px;font-style:normal;font-variant:normal;font-weight:normal;font-stretch:normal;line-height:125%;letter-spacing:0px;word-spacing:0px;fill:#000000;fill-opacity:1;stroke:none;font-family:Roboto;-inkscape-font-specification:Roboto"
   xml:space="preserve"><tspan
     style="font-size:34px;font-style:normal;font-variant:normal;font-weight:normal;font-stretch:normal;font-family:Oswald;-inkscape-font-specification:Oswald"
     y="-248.03328"
     x="90.945549"
     id="tspan6059"
     sodipodi:role="line">westpfalz.freifunk.net</tspan></text>






<g
   inkscape:groupmode="layer"
   id="layer1"
   inkscape:label="Konstruktion"
   sodipodi:insensitive="true"
   style="display:none"><g
     transform="scale(0.1,0.1)"
     id="g4075"><path
       inkscape:connector-curvature="0"
       id="path3296"
       d="m 3589.1995,2352.4566 -32.1525,-250.33 264.1096,89.5676 z"
       style="fill:none;stroke:#000000;stroke-width:8px;stroke-linecap:butt;stroke-linejoin:miter;stroke-opacity:1" /><path
       sodipodi:nodetypes="csssc"
       inkscape:connector-curvature="0"
       id="path3300"
       d="m 3599.6823,2165.2282 c -27.8033,27.8032 -27.8033,72.8812 0,100.6845 27.8033,27.8034 72.8813,27.8034 100.6846,0 27.8033,-27.8033 27.8033,-72.8813 0,-100.6845 -27.7803,-27.7803 -72.8128,-27.8067 -100.6256,-0.059"
       style="opacity:0.47196266;fill:none;stroke:#808080;stroke-width:7.99370098;stroke-linecap:round;stroke-linejoin:round;stroke-miterlimit:4;stroke-opacity:1;stroke-dashoffset:0" /><path
       inkscape:connector-curvature="0"
       id="path4071"
       d="m 2172.1942,2215.8242 3013.1457,0"
       style="fill:none;stroke:#000000;stroke-width:2.83464575;stroke-linecap:butt;stroke-linejoin:miter;stroke-miterlimit:4;stroke-opacity:1;stroke-dasharray:none" /><path
       inkscape:connector-curvature="0"
       id="path4073"
       d="m 3650.0555,3785.0008 0,-3053.0164"
       style="fill:none;stroke:#000000;stroke-width:2.83464575;stroke-linecap:butt;stroke-linejoin:miter;stroke-miterlimit:4;stroke-opacity:1;stroke-dasharray:none" /></g></g><text
   sodipodi:linespacing="125%"
   id="text4035-1"
   y="-128.36427"
   x="343.47104"
   style="font-size:10.39999962px;font-style:normal;font-variant:normal;font-weight:normal;font-stretch:normal;text-align:center;line-height:125%;letter-spacing:0px;word-spacing:0px;text-anchor:middle;fill:#000000;fill-opacity:1;stroke:none;font-family:Roboto Cn;-inkscape-font-specification:Roboto Cn"
   xml:space="preserve"
   transform="scale(1,-1)"><tspan
     id="tspan4045-8"
     style="font-size:10.39999962px;font-style:normal;font-variant:normal;font-weight:normal;font-stretch:normal;text-align:center;text-anchor:middle;fill:#e52071;fill-opacity:1;font-family:Roboto Cn;-inkscape-font-specification:Roboto Cn"
     y="-128.36427"
     x="344.58823"
     sodipodi:role="line">Öffentliche </tspan><tspan
     style="font-size:10.39999962px;font-style:normal;font-variant:normal;font-weight:normal;font-stretch:normal;text-align:center;text-anchor:middle;font-family:Roboto Cn;-inkscape-font-specification:Roboto Cn"
     y="-115.36427"
     x="344.58823"
     sodipodi:role="line"
     id="tspan4074"><tspan
   style="fill:#e52071;fill-opacity:1"
   id="tspan4852">Institutionen</tspan>, <tspan
   style="fill:#e52071;fill-opacity:1"
   id="tspan4854">Kirchen</tspan>, </tspan><tspan
     style="font-size:10.39999962px;font-style:normal;font-variant:normal;font-weight:normal;font-stretch:normal;text-align:center;text-anchor:middle;font-family:Roboto Cn;-inkscape-font-specification:Roboto Cn"
     y="-102.36427"
     x="344.58823"
     sodipodi:role="line"
     id="tspan4076"><tspan
   style="fill:#e52071;fill-opacity:1"
   id="tspan4856">Firmen</tspan> und <tspan
   style="fill:#e52071;fill-opacity:1"
   id="tspan4858">Vereine</tspan>, </tspan><tspan
     style="font-size:10.39999962px;font-style:normal;font-variant:normal;font-weight:normal;font-stretch:normal;text-align:center;text-anchor:middle;font-family:Roboto Cn;-inkscape-font-specification:Roboto Cn"
     y="-89.364273"
     x="344.58823"
     sodipodi:role="line"
     id="tspan4078">die sich beteiligen </tspan><tspan
     style="font-size:10.39999962px;font-style:normal;font-variant:normal;font-weight:normal;font-stretch:normal;text-align:center;text-anchor:middle;font-family:Roboto Cn;-inkscape-font-specification:Roboto Cn"
     y="-76.364273"
     x="344.58823"
     sodipodi:role="line"
     id="tspan4080">und z.B. Dächer für </tspan><tspan
     style="font-size:10.39999962px;font-style:normal;font-variant:normal;font-weight:normal;font-stretch:normal;text-align:center;text-anchor:middle;font-family:Roboto Cn;-inkscape-font-specification:Roboto Cn"
     y="-63.364277"
     x="343.47104"
     sodipodi:role="line"
     id="tspan4082">Freifunk bereitstellen.</tspan></text>



<text
   style="font-size:12px"
   id="text162-1"
   x="114.84221"
   y="-11.338536"
   transform="scale(1,-1)"><tspan
     y="-11.338536"
     x="114.84221"
     style="font-size:12.80000019px;font-variant:normal;font-weight:bold;writing-mode:lr-tb;fill:#ffffff;fill-opacity:1;fill-rule:nonzero;stroke:none;font-family:Oswald;-inkscape-font-specification:Oswald-Bold"
     sodipodi:role="line"
     id="tspan164-7">oder komm einfach zu unseren Treffen</tspan></text>

</g></svg>