<?xml version="1.0" encoding="UTF-8" standalone="no"?>
<!-- Created with Inkscape (http://www.inkscape.org/) -->

<svg
   xmlns:dc="http://purl.org/dc/elements/1.1/"
   xmlns:cc="http://creativecommons.org/ns#"
   xmlns:rdf="http://www.w3.org/1999/02/22-rdf-syntax-ns#"
   xmlns:svg="http://www.w3.org/2000/svg"
   xmlns="http://www.w3.org/2000/svg"
   xmlns:sodipodi="http://sodipodi.sourceforge.net/DTD/sodipodi-0.dtd"
   xmlns:inkscape="http://www.inkscape.org/namespaces/inkscape"
   width="210mm"
   height="297mm"
   viewBox="0 0 744.09448819 1052.3622047"
   id="svg4948"
   version="1.1"
   inkscape:version="0.91 r13725"
   sodipodi:docname="diversity.svg">
  <defs
     id="defs4950" />
  <sodipodi:namedview
     id="base"
     pagecolor="#ffffff"
     bordercolor="#666666"
     borderopacity="1.0"
     inkscape:pageopacity="0.0"
     inkscape:pageshadow="2"
     inkscape:zoom="16.283904"
     inkscape:cx="36.17435"
     inkscape:cy="985.71429"
     inkscape:document-units="px"
     inkscape:current-layer="g332"
     showgrid="false"
     inkscape:window-width="1676"
     inkscape:window-height="1005"
     inkscape:window-x="0"
     inkscape:window-y="1"
     inkscape:window-maximized="1" />
  <metadata
     id="metadata4953">
    <rdf:RDF>
      <cc:Work
         rdf:about="">
        <dc:format>image/svg+xml</dc:format>
        <dc:type
           rdf:resource="http://purl.org/dc/dcmitype/StillImage" />
        <dc:title />
      </cc:Work>
    </rdf:RDF>
  </metadata>
  <g
     inkscape:label="Ebene 1"
     inkscape:groupmode="layer"
     id="layer1">
    <g
       id="g328"
       transform="matrix(1.25,0,0,-1.25,62.85714,90.702914)">
      <path
         d="m 0,0 c 10.628,0 19.244,8.616 19.244,19.244 0,10.628 -8.616,19.244 -19.244,19.244 -10.628,0 -19.244,-8.616 -19.244,-19.244 C -19.244,8.616 -10.628,0 0,0"
         style="fill:#e60064;fill-opacity:1;fill-rule:nonzero;stroke:none"
         id="path330"
         inkscape:connector-curvature="0" />
    </g>
    <g
       id="g332"
       transform="matrix(1.25,0,0,-1.25,62.85714,90.702914)">
      <path
         d="m 0,0 c 10.628,0 19.244,8.616 19.244,19.244 0,10.628 -8.616,19.244 -19.244,19.244 -10.628,0 -19.244,-8.616 -19.244,-19.244 C -19.244,8.616 -10.628,0 0,0 Z"
         style="fill:none;stroke:#1a1a13;stroke-width:1.4416;stroke-linecap:butt;stroke-linejoin:miter;stroke-miterlimit:4;stroke-dasharray:none;stroke-opacity:1"
         id="path334"
         inkscape:connector-curvature="0" />
    </g>
    <g
       id="g336"
       transform="matrix(1.25,0,0,-1.25,62.85714,72.640419)">
      <path
         d="M 0,0 C 2.544,0 4.606,2.062 4.606,4.606 4.606,7.15 2.544,9.213 0,9.213 -2.544,9.213 -4.606,7.15 -4.606,4.606 -4.606,2.062 -2.544,0 0,0"
         style="fill:#ffffff;fill-opacity:1;fill-rule:nonzero;stroke:none"
         id="path338"
         inkscape:connector-curvature="0" />
    </g>
    <g
       id="g340"
       transform="matrix(1.25,0,0,-1.25,62.85714,72.640419)">
      <path
         d="M 0,0 C 2.544,0 4.606,2.062 4.606,4.606 4.606,7.15 2.544,9.213 0,9.213 -2.544,9.213 -4.606,7.15 -4.606,4.606 -4.606,2.062 -2.544,0 0,0 Z"
         style="fill:none;stroke:#ffffff;stroke-width:1;stroke-linecap:butt;stroke-linejoin:miter;stroke-miterlimit:4;stroke-dasharray:none;stroke-opacity:1"
         id="path342"
         inkscape:connector-curvature="0" />
    </g>
    <g
       id="g344"
       transform="matrix(1.25,0,0,-1.25,73.16301,66.882549)">
      <path
         d="M 0,0 4.415,0"
         style="fill:none;stroke:#ffffff;stroke-width:1;stroke-linecap:butt;stroke-linejoin:miter;stroke-miterlimit:4;stroke-dasharray:none;stroke-opacity:1"
         id="path346"
         inkscape:connector-curvature="0" />
    </g>
    <g
       id="g348"
       transform="matrix(1.25,0,0,-1.25,83.35001,66.882549)">
      <path
         d="m 0,0 -4.2,3.905 0,-7.81 L 0,0 Z"
         style="fill:#ffffff;fill-opacity:1;fill-rule:nonzero;stroke:none"
         id="path350"
         inkscape:connector-curvature="0" />
    </g>
    <g
       id="g352"
       transform="matrix(1.25,0,0,-1.25,52.87752,66.882679)">
      <path
         d="M 0,0 -4.415,0"
         style="fill:none;stroke:#ffffff;stroke-width:1;stroke-linecap:butt;stroke-linejoin:miter;stroke-miterlimit:4;stroke-dasharray:none;stroke-opacity:1"
         id="path354"
         inkscape:connector-curvature="0" />
    </g>
    <g
       id="g356"
       transform="matrix(1.25,0,0,-1.25,42.69052,66.882679)">
      <path
         d="m 0,0 4.2,-3.905 0,7.81 L 0,0 Z"
         style="fill:#ffffff;fill-opacity:1;fill-rule:nonzero;stroke:none"
         id="path358"
         inkscape:connector-curvature="0" />
    </g>
    <g
       id="g360"
       transform="matrix(1.25,0,0,-1.25,63.02027,77.025294)">
      <path
         d="M 0,0 0,-4.415"
         style="fill:none;stroke:#ffffff;stroke-width:1;stroke-linecap:butt;stroke-linejoin:miter;stroke-miterlimit:4;stroke-dasharray:none;stroke-opacity:1"
         id="path362"
         inkscape:connector-curvature="0" />
    </g>
    <g
       id="g364"
       transform="matrix(1.25,0,0,-1.25,63.02027,87.212294)">
      <path
         d="m 0,0 3.905,4.2 -7.81,0 L 0,0 Z"
         style="fill:#ffffff;fill-opacity:1;fill-rule:nonzero;stroke:none"
         id="path366"
         inkscape:connector-curvature="0" />
    </g>
    <g
       id="g368"
       transform="matrix(1.25,0,0,-1.25,63.02027,56.739919)">
      <path
         d="M 0,0 0,4.415"
         style="fill:none;stroke:#ffffff;stroke-width:1;stroke-linecap:butt;stroke-linejoin:miter;stroke-miterlimit:4;stroke-dasharray:none;stroke-opacity:1"
         id="path370"
         inkscape:connector-curvature="0" />
    </g>
    <g
       id="g372"
       transform="matrix(1.25,0,0,-1.25,63.02027,46.552929)">
      <path
         d="m 0,0 -3.905,-4.2 7.81,0 L 0,0 Z"
         style="fill:#ffffff;fill-opacity:1;fill-rule:nonzero;stroke:none"
         id="path374"
         inkscape:connector-curvature="0" />
    </g>
    <g
       id="g376"
       transform="matrix(1.25,0,0,-1.25,70.19227,74.054549)">
      <path
         d="M 0,0 3.122,-3.122"
         style="fill:none;stroke:#ffffff;stroke-width:1;stroke-linecap:butt;stroke-linejoin:miter;stroke-miterlimit:4;stroke-dasharray:none;stroke-opacity:1"
         id="path378"
         inkscape:connector-curvature="0" />
    </g>
    <g
       id="g380"
       transform="matrix(1.25,0,0,-1.25,77.39552,81.257914)">
      <path
         d="M 0,0 -0.209,5.731 -5.73,0.209 0,0 Z"
         style="fill:#ffffff;fill-opacity:1;fill-rule:nonzero;stroke:none"
         id="path382"
         inkscape:connector-curvature="0" />
    </g>
    <g
       id="g384"
       transform="matrix(1.25,0,0,-1.25,55.84826,59.710679)">
      <path
         d="M 0,0 -3.122,3.122"
         style="fill:none;stroke:#ffffff;stroke-width:1;stroke-linecap:butt;stroke-linejoin:miter;stroke-miterlimit:4;stroke-dasharray:none;stroke-opacity:1"
         id="path386"
         inkscape:connector-curvature="0" />
    </g>
    <g
       id="g388"
       transform="matrix(1.25,0,0,-1.25,48.64501,52.507299)">
      <path
         d="M 0,0 0.209,-5.731 5.73,-0.209 0,0 Z"
         style="fill:#ffffff;fill-opacity:1;fill-rule:nonzero;stroke:none"
         id="path390"
         inkscape:connector-curvature="0" />
    </g>
    <g
       id="g392"
       transform="matrix(1.25,0,0,-1.25,55.84826,74.054549)">
      <path
         d="M 0,0 -3.122,-3.122"
         style="fill:none;stroke:#ffffff;stroke-width:1;stroke-linecap:butt;stroke-linejoin:miter;stroke-miterlimit:4;stroke-dasharray:none;stroke-opacity:1"
         id="path394"
         inkscape:connector-curvature="0" />
    </g>
    <g
       id="g396"
       transform="matrix(1.25,0,0,-1.25,48.64501,81.257914)">
      <path
         d="M 0,0 5.731,0.209 0.209,5.731 0,0 Z"
         style="fill:#ffffff;fill-opacity:1;fill-rule:nonzero;stroke:none"
         id="path398"
         inkscape:connector-curvature="0" />
    </g>
    <g
       id="g400"
       transform="matrix(1.25,0,0,-1.25,70.19227,59.710679)">
      <path
         d="M 0,0 3.122,3.122"
         style="fill:none;stroke:#ffffff;stroke-width:1;stroke-linecap:butt;stroke-linejoin:miter;stroke-miterlimit:4;stroke-dasharray:none;stroke-opacity:1"
         id="path402"
         inkscape:connector-curvature="0" />
    </g>
    <g
       id="g404"
       transform="matrix(1.25,0,0,-1.25,77.39552,52.507299)">
      <path
         d="M 0,0 -5.731,-0.209 -0.209,-5.731 0,0 Z"
         style="fill:#ffffff;fill-opacity:1;fill-rule:nonzero;stroke:none"
         id="path406"
         inkscape:connector-curvature="0" />
    </g>
  </g>
</svg>
