<?xml version="1.0" encoding="UTF-8" standalone="no"?>
<!-- Created with Inkscape (http://www.inkscape.org/) -->

<svg
   xmlns:dc="http://purl.org/dc/elements/1.1/"
   xmlns:cc="http://creativecommons.org/ns#"
   xmlns:rdf="http://www.w3.org/1999/02/22-rdf-syntax-ns#"
   xmlns:svg="http://www.w3.org/2000/svg"
   xmlns="http://www.w3.org/2000/svg"
   xmlns:sodipodi="http://sodipodi.sourceforge.net/DTD/sodipodi-0.dtd"
   xmlns:inkscape="http://www.inkscape.org/namespaces/inkscape"
   width="210mm"
   height="297mm"
   viewBox="0 0 744.09448819 1052.3622047"
   id="svg9689"
   version="1.1"
   inkscape:version="0.91 r13725"
   sodipodi:docname="FFRouter_Firmware.svg">
  <defs
     id="defs9691">
    <clipPath
       clipPathUnits="userSpaceOnUse"
       id="clipPath1070">
      <path
         d="m 0,0 1111.181,0 0,283.465 L 0,283.465 0,0 Z"
         id="path1072"
         inkscape:connector-curvature="0" />
    </clipPath>
  </defs>
  <sodipodi:namedview
     id="base"
     pagecolor="#ffffff"
     bordercolor="#666666"
     borderopacity="1.0"
     inkscape:pageopacity="0.0"
     inkscape:pageshadow="2"
     inkscape:zoom="2.9929106"
     inkscape:cx="54.285714"
     inkscape:cy="937.81284"
     inkscape:document-units="px"
     inkscape:current-layer="layer1"
     showgrid="false"
     inkscape:window-width="1676"
     inkscape:window-height="1005"
     inkscape:window-x="0"
     inkscape:window-y="1"
     inkscape:window-maximized="1" />
  <metadata
     id="metadata9694">
    <rdf:RDF>
      <cc:Work
         rdf:about="">
        <dc:format>image/svg+xml</dc:format>
        <dc:type
           rdf:resource="http://purl.org/dc/dcmitype/StillImage" />
        <dc:title></dc:title>
      </cc:Work>
    </rdf:RDF>
  </metadata>
  <g
     inkscape:label="Ebene 1"
     inkscape:groupmode="layer"
     id="layer1">
    <g
       transform="matrix(1.25,0,0,-1.25,-533.59877,277.31979)"
       id="g1066">
      <g
         id="g1068"
         clip-path="url(#clipPath1070)">
        <g
           id="g1074"
           transform="translate(470.8329,195.1264)">
          <path
             d="M 0,0 C 0.001,6.062 4.913,10.973 10.976,10.974 17.036,10.973 21.947,6.062 21.948,0 21.947,-6.062 17.036,-10.974 10.976,-10.974 4.913,-10.974 0.001,-6.062 0,0 m 2.056,0 c 0.01,-4.925 3.993,-8.91 8.92,-8.918 C 15.9,-8.91 19.882,-4.925 19.893,0 19.882,4.924 15.9,8.908 10.976,8.919 6.049,8.908 2.066,4.924 2.056,0"
             style="fill:#e60064;fill-opacity:1;fill-rule:nonzero;stroke:none"
             id="path1076"
             inkscape:connector-curvature="0" />
        </g>
        <g
           id="g1078"
           transform="translate(474.0006,195.1257)">
          <path
             d="M 0,0 C 0,4.312 3.495,7.807 7.806,7.807 12.118,7.807 15.611,4.312 15.612,0 15.611,-4.311 12.118,-7.806 7.806,-7.806 3.495,-7.806 0,-4.311 0,0 M 0.411,0 C 0.418,-4.084 3.722,-7.387 7.806,-7.394 11.889,-7.387 15.193,-4.084 15.201,0 15.193,4.084 11.889,7.389 7.806,7.396 3.722,7.389 0.418,4.084 0.411,0"
             style="fill:#e60064;fill-opacity:1;fill-rule:nonzero;stroke:none"
             id="path1080"
             inkscape:connector-curvature="0" />
        </g>
        <g
           id="g1082"
           transform="translate(461.8347,191.4876)">
          <path
             d="M 0,0 C 0,4.064 3.293,7.357 7.356,7.357 11.42,7.357 14.711,4.064 14.712,0 14.711,-4.063 11.42,-7.355 7.356,-7.355 3.293,-7.355 0,-4.063 0,0 M 0.412,0 C 0.418,-3.836 3.521,-6.938 7.356,-6.946 11.192,-6.938 14.294,-3.836 14.301,0 14.294,3.836 11.192,6.938 7.356,6.945 3.521,6.938 0.418,3.836 0.412,0"
             style="fill:#e60064;fill-opacity:1;fill-rule:nonzero;stroke:none"
             id="path1084"
             inkscape:connector-curvature="0" />
        </g>
        <g
           id="g1086"
           transform="translate(478.359,193.0553)">
          <path
             d="m 0,0 2.744,3.136 2.899,0 -2.006,-2.112 4.053,0 0,-2.047 -3.857,0 1.94,-1.875 -2.964,0 L 0,0 Z"
             style="fill:#ffcd00;fill-opacity:1;fill-rule:nonzero;stroke:none"
             id="path1088"
             inkscape:connector-curvature="0" />
        </g>
        <g
           id="g1090"
           transform="translate(467.6292,191.3708)">
          <path
             d="m 0,0 -1.772,0 1.16,1.121 -2.306,0 0,1.224 2.423,0 -1.199,1.263 1.733,0 L 1.68,1.732 0,0 Z"
             style="fill:#ffcd00;fill-opacity:1;fill-rule:nonzero;stroke:none"
             id="path1092"
             inkscape:connector-curvature="0" />
        </g>
      </g>
    </g>
    <g
       id="g1892"
       transform="matrix(1.25,0,0,-1.25,64.054106,50.76766)">
      <path
         d="M 0,0 0,-13.131"
         style="fill:none;stroke:#e60064;stroke-width:3.36800003;stroke-linecap:butt;stroke-linejoin:miter;stroke-miterlimit:4;stroke-dasharray:none;stroke-opacity:1"
         id="path1894"
         inkscape:connector-curvature="0" />
    </g>
    <g
       id="g1896"
       transform="matrix(1.25,0,0,-1.25,64.054106,74.02267)">
      <path
         d="m 0,0 7.932,8.531 -15.864,0 L 0,0 Z"
         style="fill:#e60064;fill-opacity:1;fill-rule:nonzero;stroke:none"
         id="path1898"
         inkscape:connector-curvature="0" />
    </g>
    <g
       id="g1948"
       transform="matrix(1.25,0,0,-1.25,86.411366,79.19429)">
      <path
         d="m 0,0 c 0,0 6.043,24.412 7.195,27.865 1.151,3.453 2.446,8.058 3.453,12.374 1.007,4.317 1.544,8.058 2.858,7.482 1.314,-0.575 -1.132,-7.482 -1.132,-7.482 0,0 -1.963,-9.191 -2.446,-13.237 C 9.445,22.956 4.009,-0.501 4.009,-0.501 L 0,0 Z"
         style="fill:#e61565;fill-opacity:1;fill-rule:nonzero;stroke:none"
         id="path1950"
         inkscape:connector-curvature="0" />
    </g>
    <g
       id="g1952"
       transform="matrix(1.25,0,0,-1.25,40.108986,79.19429)">
      <path
         d="m 0,0 c 0,0 -6.043,24.412 -7.194,27.865 -1.151,3.453 -2.446,8.058 -3.453,12.374 -1.007,4.317 -1.544,8.058 -2.859,7.482 -1.314,-0.575 1.132,-7.482 1.132,-7.482 0,0 1.962,-9.191 2.446,-13.237 0.483,-4.046 5.92,-27.503 5.92,-27.503 L 0,0 Z"
         style="fill:#e61565;fill-opacity:1;fill-rule:nonzero;stroke:none"
         id="path1954"
         inkscape:connector-curvature="0" />
    </g>
    <g
       id="g1956"
       transform="matrix(1.25,0,0,-1.25,104.03786,97.17954)">
      <path
         d="m 0,0 c 0,-2.252 -1.725,-4.078 -4.208,-4.078 l -57.773,0 c -2.482,0 -4.207,1.826 -4.207,4.078 l 5.468,9.973 c 1.295,2.208 2.012,4.078 4.495,4.078 l 46.262,0 c 2.483,0 2.913,-1.582 4.495,-4.078 L 0,0 Z"
         style="fill:#ffffff;fill-opacity:1;fill-rule:nonzero;stroke:none"
         id="path1958"
         inkscape:connector-curvature="0" />
    </g>
    <g
       id="g1960"
       transform="matrix(1.25,0,0,-1.25,98.778238,104.06304)">
      <path
         d="m 0,0 -57.773,0 c -3.213,0 -5.636,2.367 -5.636,5.507 l 0,0.366 5.644,10.293 c 0.172,0.295 0.316,0.549 0.455,0.796 1.066,1.886 2.275,4.024 5.293,4.024 l 46.262,0 c 2.875,0 3.909,-1.744 5.002,-3.59 0.211,-0.357 0.439,-0.742 0.7,-1.152 l 0.046,-0.078 5.643,-10.293 0,-0.366 C 5.636,2.367 3.213,0 0,0 m -60.533,5.175 c 0.156,-1.362 1.268,-2.318 2.76,-2.318 L 0,2.857 c 1.492,0 2.605,0.956 2.761,2.318 l -5.252,9.578 c -0.267,0.422 -0.502,0.819 -0.72,1.187 -1.07,1.807 -1.339,2.189 -2.544,2.189 l -46.262,0 c -1.246,0 -1.706,-0.628 -2.806,-2.573 -0.147,-0.26 -0.298,-0.527 -0.458,-0.799 l -5.252,-9.582 z"
         style="fill:#e61565;fill-opacity:1;fill-rule:nonzero;stroke:none"
         id="path1962"
         inkscape:connector-curvature="0" />
    </g>
    <g
       id="g1964"
       transform="matrix(1.25,0,0,-1.25,34.612236,113.30816)">
      <path
         d="m 0,0 c 0,-0.451 -0.365,-0.816 -0.816,-0.816 l -5.419,0 c -0.45,0 -0.816,0.365 -0.816,0.816 l 0,2.541 c 0,0.45 0.366,0.816 0.816,0.816 l 5.419,0 C -0.365,3.357 0,2.991 0,2.541 L 0,0 Z"
         style="fill:#e61565;fill-opacity:1;fill-rule:nonzero;stroke:none"
         id="path1966"
         inkscape:connector-curvature="0" />
    </g>
    <g
       id="g1968"
       transform="matrix(1.25,0,0,-1.25,100.05699,113.30816)">
      <path
         d="m 0,0 c 0,-0.451 -0.366,-0.816 -0.816,-0.816 l -5.419,0 c -0.451,0 -0.816,0.365 -0.816,0.816 l 0,2.541 c 0,0.45 0.365,0.816 0.816,0.816 l 5.419,0 C -0.366,3.357 0,2.991 0,2.541 L 0,0 Z"
         style="fill:#e61565;fill-opacity:1;fill-rule:nonzero;stroke:none"
         id="path1970"
         inkscape:connector-curvature="0" />
    </g>
    <g
       id="g1972"
       transform="matrix(1.25,0,0,-1.25,104.39699,104.73329)">
      <path
         d="m 0,0 c 0,-2.253 -2.012,-4.079 -4.495,-4.079 l -57.773,0 c -2.483,0 -4.495,1.826 -4.495,4.079 l 0,4.793 c 0,2.252 2.012,4.078 4.495,4.078 l 57.773,0 C -2.012,8.871 0,7.045 0,4.793 L 0,0 Z"
         style="fill:#ffffff;fill-opacity:1;fill-rule:nonzero;stroke:none"
         id="path1974"
         inkscape:connector-curvature="0" />
    </g>
    <g
       id="g1976"
       transform="matrix(1.25,0,0,-1.25,98.778238,111.61741)">
      <path
         d="m 0,0 -57.773,0 c -3.266,0 -5.924,2.47 -5.924,5.507 l 0,4.793 c 0,3.036 2.658,5.507 5.924,5.507 l 57.773,0 c 3.266,0 5.923,-2.471 5.923,-5.507 l 0,-4.793 C 5.923,2.47 3.266,0 0,0 m -57.773,12.95 c -1.691,0 -3.067,-1.189 -3.067,-2.65 l 0,-4.793 c 0,-1.461 1.376,-2.65 3.067,-2.65 L 0,2.857 c 1.691,0 3.067,1.189 3.067,2.65 l 0,4.793 c 0,1.461 -1.376,2.65 -3.067,2.65 l -57.773,0 z"
         style="fill:#e61565;fill-opacity:1;fill-rule:nonzero;stroke:none"
         id="path1978"
         inkscape:connector-curvature="0" />
    </g>
    <g
       id="g1980"
       transform="matrix(1.25,0,0,-1.25,100.62074,104.25604)">
      <path
         d="m 0,0 c 0,-1.113 -0.902,-2.015 -2.015,-2.015 l -57.123,0 c -1.112,0 -2.014,0.902 -2.014,2.015 0,1.113 0.902,2.014 2.014,2.014 l 57.123,0 C -0.902,2.014 0,1.113 0,0"
         style="fill:#fecb0c;fill-opacity:1;fill-rule:nonzero;stroke:none"
         id="path1982"
         inkscape:connector-curvature="0" />
    </g>
  </g>
</svg>
