<?xml version="1.0" encoding="UTF-8" standalone="no"?>
<!-- Created with Inkscape (http://www.inkscape.org/) -->

<svg
   xmlns:dc="http://purl.org/dc/elements/1.1/"
   xmlns:cc="http://creativecommons.org/ns#"
   xmlns:rdf="http://www.w3.org/1999/02/22-rdf-syntax-ns#"
   xmlns:svg="http://www.w3.org/2000/svg"
   xmlns="http://www.w3.org/2000/svg"
   xmlns:sodipodi="http://sodipodi.sourceforge.net/DTD/sodipodi-0.dtd"
   xmlns:inkscape="http://www.inkscape.org/namespaces/inkscape"
   width="28.582167mm"
   height="8.8005457mm"
   viewBox="0 0 101.27539 31.183036"
   id="svg3379"
   version="1.1"
   inkscape:version="0.91 r13725"
   sodipodi:docname="Freifunk-Wortmarke_weiss.svg">
  <defs
     id="defs3381" />
  <sodipodi:namedview
     id="base"
     pagecolor="#ffffff"
     bordercolor="#666666"
     borderopacity="1.0"
     inkscape:pageopacity="0.0"
     inkscape:pageshadow="2"
     inkscape:zoom="1.7143518"
     inkscape:cx="157.59442"
     inkscape:cy="-42.979908"
     inkscape:document-units="px"
     inkscape:current-layer="layer1"
     showgrid="false"
     fit-margin-top="0"
     fit-margin-left="0"
     fit-margin-right="0"
     fit-margin-bottom="0"
     inkscape:window-width="1676"
     inkscape:window-height="1005"
     inkscape:window-x="0"
     inkscape:window-y="1"
     inkscape:window-maximized="1" />
  <metadata
     id="metadata3384">
    <rdf:RDF>
      <cc:Work
         rdf:about="">
        <dc:format>image/svg+xml</dc:format>
        <dc:type
           rdf:resource="http://purl.org/dc/dcmitype/StillImage" />
        <dc:title></dc:title>
      </cc:Work>
    </rdf:RDF>
  </metadata>
  <g
     inkscape:label="Ebene 1"
     inkscape:groupmode="layer"
     id="layer1"
     transform="translate(-73.834162,-99.627831)">
    <g
       transform="matrix(1.1199445,0,0,0.89290136,63.462396,-23.071129)"
       id="g20"
       style="fill:#ffffff">
      <path
         d="m 10.718125,171.9993 4.662913,0 0,-24.09172 1.45716,0 0,-3.69147 -1.45716,0 0,-1.70002 c 0,-0.68001 0.09714,-1.36002 0.825724,-1.40859 l 0.631436,0 0,-3.69147 -2.622889,0 c -2.865745,0 -3.497184,1.45716 -3.497184,3.30289 l 0,3.49719 -1.4571606,0 0,3.69147 1.4571606,0 0,24.09172"
         id="path22"
         style="fill:#ffffff;fill-opacity:1"
         inkscape:connector-curvature="0" />
      <path
         d="m 18.148124,171.9993 4.662913,0 0,-22.44027 c 0,-0.77715 0.04857,-1.70002 1.214301,-1.70002 0.971439,0 1.020012,0.92287 1.020012,1.70002 l 0,9.18011 4.662913,0 0,-9.56869 c 0,-2.91431 0.09714,-5.29435 -3.594329,-5.29435 -1.262871,0 -2.525745,0.63144 -3.205753,1.94288 l -0.09714,0 0,-1.60287 -4.662913,0 0,27.78319"
         id="path24"
         style="fill:#ffffff;fill-opacity:1"
         inkscape:connector-curvature="0" />
      <path
         d="m 38.516493,161.0706 0,6.50865 c 0,1.26287 -0.437149,1.36001 -1.117157,1.36001 -0.680007,0 -1.117156,-0.0971 -1.117156,-1.36001 l 0,-8.84011 6.897226,0 0,-10.20012 c 0,-2.86575 -2.234316,-4.66292 -5.78007,-4.66292 -3.545753,0 -5.780069,1.79717 -5.780069,4.66292 l 0,19.13737 c 0,2.86574 2.234316,4.66291 5.780069,4.66291 3.545754,0 5.78007,-1.79717 5.78007,-4.66291 l 0,-6.60579 -4.662913,0 m 0,-5.58579 -2.234313,0 0,-6.84865 c 0,-1.26287 0.437149,-1.36002 1.117156,-1.36002 0.680008,0 1.117157,0.0971 1.117157,1.36002 l 0,6.84865"
         id="path26"
         style="fill:#ffffff;fill-opacity:1"
         inkscape:connector-curvature="0" />
      <path
         d="m 50.044758,171.9993 0,-27.78319 -4.662913,0 0,27.78319 4.662913,0 m 0,-34.58327 -4.662913,0 0,4.95434 4.662913,0 0,-4.95434"
         id="path28"
         style="fill:#ffffff;fill-opacity:1"
         inkscape:connector-curvature="0" />
      <path
         d="m 53.0289,171.9993 4.662913,0 0,-24.09172 1.457161,0 0,-3.69147 -1.457161,0 0,-1.70002 c 0,-0.68001 0.09714,-1.36002 0.825725,-1.40859 l 0.631436,0 0,-3.69147 -2.622889,0 c -2.865746,0 -3.497185,1.45716 -3.497185,3.30289 l 0,3.49719 -1.45716,0 0,3.69147 1.45716,0 0,24.09172"
         id="path30"
         style="fill:#ffffff;fill-opacity:1"
         inkscape:connector-curvature="0" />
      <path
         d="m 72.019036,144.21611 -4.662913,0 0,22.44027 c 0,0.77715 -0.04857,1.70002 -1.214301,1.70002 -0.971439,0 -1.020012,-0.92287 -1.020012,-1.70002 l 0,-22.44027 -4.662913,0 0,22.82884 c 0,2.91432 -0.09714,5.29435 3.594329,5.29435 1.262871,0 2.525745,-0.63144 3.205753,-1.94288 l 0.09714,0 0,1.60288 4.662913,0 0,-27.78319"
         id="path32"
         style="fill:#ffffff;fill-opacity:1"
         inkscape:connector-curvature="0" />
      <path
         d="m 73.930043,171.9993 4.662913,0 0,-22.44027 c 0,-0.77715 0.04857,-1.70002 1.2143,-1.70002 0.971439,0 1.020012,0.92287 1.020012,1.70002 l 0,22.44027 4.662913,0 0,-23.12028 c 0,-2.91432 -0.04858,-5.00292 -3.594328,-5.00292 -1.262871,0 -2.525746,0.63144 -3.205753,1.94288 l -0.09714,0 0,-1.60287 -4.662913,0 0,27.78319"
         id="path34"
         style="fill:#ffffff;fill-opacity:1"
         inkscape:connector-curvature="0" />
      <path
         d="m 92.161246,171.9993 0,-14.62018 0.194288,0 2.574316,14.62018 4.760057,0 -2.817176,-15.25161 2.67146,-12.53158 -4.662913,0 -2.525744,12.77444 -0.194288,0 0,-19.57452 -4.662913,0 0,34.58327 4.662913,0"
         id="path36"
         style="fill:#ffffff;fill-opacity:1"
         inkscape:connector-curvature="0" />
    </g>
  </g>
</svg>
