<?xml version="1.0" encoding="UTF-8" standalone="no"?>
<!-- Created with Inkscape (http://www.inkscape.org/) -->

<svg
   xmlns:dc="http://purl.org/dc/elements/1.1/"
   xmlns:cc="http://creativecommons.org/ns#"
   xmlns:rdf="http://www.w3.org/1999/02/22-rdf-syntax-ns#"
   xmlns:svg="http://www.w3.org/2000/svg"
   xmlns="http://www.w3.org/2000/svg"
   xmlns:sodipodi="http://sodipodi.sourceforge.net/DTD/sodipodi-0.dtd"
   xmlns:inkscape="http://www.inkscape.org/namespaces/inkscape"
   width="210mm"
   height="297mm"
   viewBox="0 0 744.09448819 1052.3622047"
   id="svg4948"
   version="1.1"
   inkscape:version="0.91 r13725"
   sodipodi:docname="island.svg">
  <defs
     id="defs4950">
    <clipPath
       id="clipPath3472"
       clipPathUnits="userSpaceOnUse">
      <path
         inkscape:connector-curvature="0"
         id="path3474"
         d="m 0,9.92969 390,0 0,380 -390,0 0,-380 z" />
    </clipPath>
    <clipPath
       clipPathUnits="userSpaceOnUse"
       id="clipPath3537">
      <g
         id="g3539"
         transform="translate(20.893208,-1.959456)">
        <path
           d="m 0,0 c 10.628,0 19.244,8.616 19.244,19.244 0,10.628 -8.616,19.244 -19.244,19.244 -10.628,0 -19.244,-8.616 -19.244,-19.244 C -19.244,8.616 -10.628,0 0,0 Z"
           style="fill:none;stroke:#1a1a13;stroke-width:1.80199993;stroke-linecap:butt;stroke-linejoin:miter;stroke-miterlimit:4;stroke-dasharray:none;stroke-opacity:1"
           id="path3541"
           inkscape:connector-curvature="0" />
      </g>
    </clipPath>
  </defs>
  <sodipodi:namedview
     id="base"
     pagecolor="#ffffff"
     bordercolor="#666666"
     borderopacity="1.0"
     inkscape:pageopacity="0.0"
     inkscape:pageshadow="2"
     inkscape:zoom="11.514459"
     inkscape:cx="57.066208"
     inkscape:cy="985.71429"
     inkscape:document-units="px"
     inkscape:current-layer="g3470"
     showgrid="false"
     inkscape:window-width="1676"
     inkscape:window-height="1005"
     inkscape:window-x="0"
     inkscape:window-y="1"
     inkscape:window-maximized="1" />
  <metadata
     id="metadata4953">
    <rdf:RDF>
      <cc:Work
         rdf:about="">
        <dc:format>image/svg+xml</dc:format>
        <dc:type
           rdf:resource="http://purl.org/dc/dcmitype/StillImage" />
        <dc:title />
      </cc:Work>
    </rdf:RDF>
  </metadata>
  <g
     inkscape:label="Ebene 1"
     inkscape:groupmode="layer"
     id="layer1">
    <path
       inkscape:connector-curvature="0"
       id="path334"
       style="fill:none;stroke:#1a1a13;stroke-width:1.80199993;stroke-linecap:butt;stroke-linejoin:miter;stroke-miterlimit:4;stroke-dasharray:none;stroke-opacity:1"
       d="m 62.85714,90.702914 c 13.285,0 24.055,-10.77 24.055,-24.055 0,-13.285 -10.77,-24.055 -24.055,-24.055 -13.285,0 -24.055,10.77 -24.055,24.055 0,13.285 10.77,24.055 24.055,24.055 z" />
    <g
       id="g3470"
       clip-path="url(#clipPath3472)"
       transform="matrix(0.10950744,0,0,-0.10950744,40.733096,91.469083)">
      <path
         d="m 173.711,186.922 c 5.937,-2.391 14.84,-2.742 19.687,-2.742 4.18,0 11.211,0.281 16.872,1.84 -1.68,-10.309 -2.969,-21.09 -3.551,-31.84 -0.039,-0.039 -0.078,-0.078 -0.078,-0.078 -1.871,-1.09 -8.789,-2.774 -19.532,-2.774 -10.738,0 -17.66,1.684 -19.531,2.774 -0.078,0.16 -0.277,0.277 -0.348,0.429 1.872,11.879 4.098,22.578 6.481,32.391 z"
         style="fill:#000000;fill-opacity:1;fill-rule:nonzero;stroke:none"
         id="path3476"
         inkscape:connector-curvature="0" />
      <path
         d="m 186.02,226.84 c 5.582,-3.199 15.5,-3.629 19.332,-3.629 2.66,0 8.128,0.187 13.128,1.32 -2.23,-8.672 -4.531,-18.39 -6.492,-28.82 -0.187,-0.281 -0.508,-0.512 -0.66,-0.859 -1.797,-1.063 -8.129,-2.661 -17.887,-2.661 -9.531,0 -15.711,1.52 -17.66,2.579 3.278,12.421 6.84,23.199 10.239,32.07 z"
         style="fill:#000000;fill-opacity:1;fill-rule:nonzero;stroke:none"
         id="path3478"
         inkscape:connector-curvature="0" />
      <path
         d="m 187.109,143.32 c 5.661,0 13.442,0.43 19.262,2.192 -0.32,-14.063 0.699,-27.891 3.668,-40.66 -0.039,-0.122 -0.16,-0.161 -0.238,-0.321 -2.031,-1.359 -10.313,-3.511 -23.821,-3.511 -13.519,0 -21.839,2.152 -23.871,3.511 -0.039,0.16 -0.16,0.199 -0.199,0.321 0.899,14.878 2.309,28.628 4.11,41.289 6.281,-2.43 15.859,-2.821 21.089,-2.821 z"
         style="fill:#000000;fill-opacity:1;fill-rule:nonzero;stroke:none"
         id="path3480"
         inkscape:connector-curvature="0" />
      <path
         d="m 161.371,96.1406 c 7.34,-2.6992 18.508,-3.1289 24.609,-3.1289 6.52,0 19.059,0.4688 26.25,3.8281 3.508,-11.289 8.899,-21.4101 16.52,-29.6914 C 226.211,64.5703 215.121,60 195,60 c -22.66,0 -33.91,5.8203 -34.34,8.0117 0,9.8086 0.281,19.0977 0.711,28.1289 z"
         style="fill:#000000;fill-opacity:1;fill-rule:nonzero;stroke:none"
         id="path3482"
         inkscape:connector-curvature="0" />
      <path
         d="m 246.09,260 c -6.481,0 -12.418,3.68 -15.43,9.57 -1.25,2.539 -1.871,5.16 -1.871,7.782 0,4.918 2.07,9.488 5.859,12.886 3.204,2.852 7.262,4.453 11.442,4.453 9.57,0 17.351,-7.812 17.351,-17.339 0,-9.571 -7.781,-17.352 -17.351,-17.352 z"
         style="fill:#000000;fill-opacity:1;fill-rule:nonzero;stroke:none"
         id="path3484"
         inkscape:connector-curvature="0" />
      <path
         d="m 188.09,287.699 c -47.192,0 -86.289,-43.199 -103.1681,-65.308 11.7187,58.039 85.6681,93.937 86.4881,94.328 1.52,0.742 2.461,2.383 2.219,4.062 -0.188,1.719 -1.438,3.09 -3.117,3.438 -54.731,11.601 -88.7932,-5.739 -105.8206,-19.18 7.2969,15.242 18.1602,26.41 32.418,33.402 43.8316,21.559 106.1286,-3.242 106.7616,-3.48 1.641,-0.66 3.508,-0.191 4.609,1.219 1.129,1.359 1.168,3.32 0.192,4.761 -19.652,28.36 -38.363,42.231 -52.852,48.95 31.168,0.699 55.309,-5.59 70.16,-18.52 15.821,-13.75 16.129,-30.043 16.129,-30.699 0,-1.641 0.981,-3.094 2.5,-3.711 1.481,-0.633 3.2,-0.281 4.34,0.859 21.871,21.91 43.903,31.559 65.313,28.782 19.687,-2.571 35.66,-15.313 46.207,-26.602 -38.629,15.672 -84.258,-11.871 -86.52,-13.281 -1.527,-0.938 -2.269,-2.77 -1.758,-4.489 0.508,-1.718 2.071,-2.89 3.829,-2.89 50.351,0 83.82,-11.059 99.531,-32.77 6.168,-8.64 8.629,-17.82 9.289,-25.75 -2.141,3.52 -4.84,6.68 -8.16,9.461 -25.43,21.559 -76.52,13.36 -78.668,13 -2.071,-0.351 -3.524,-2.222 -3.364,-4.293 0.192,-2.066 1.911,-3.668 3.981,-3.668 10.082,0 18.402,-3.519 25.512,-10.789 16.211,-16.601 21.289,-48.351 22.847,-68.203 -19.488,25.473 -65.859,62.113 -77.109,70.82 -0.188,0.122 -0.348,0.161 -0.5,0.243 1.281,3.039 2.031,6.398 2.031,9.961 0,13.937 -11.371,25.308 -25.32,25.308 -4.61,0 -9.141,-1.289 -13.078,-3.711 -4.731,6.25 -12.071,10.039 -20.043,10.039 -12.539,0 -22.969,-9.258 -24.879,-21.289 z"
         style="fill:#000000;fill-opacity:1;fill-rule:nonzero;stroke:none"
         id="path3486"
         inkscape:connector-curvature="0" />
      <path
         d="m 213.012,301.02 c 5.578,0 10.699,-2.739 13.937,-7.231 -0.269,-0.269 -0.429,-0.617 -0.66,-0.937 -0.391,-0.5 -0.777,-1.012 -1.129,-1.563 -0.59,-0.859 -1.14,-1.758 -1.57,-2.648 -0.27,-0.59 -0.578,-1.141 -0.82,-1.68 -0.43,-1.063 -0.782,-2.109 -1.051,-3.172 -0.16,-0.539 -0.309,-1.008 -0.43,-1.559 -0.348,-1.601 -0.551,-3.242 -0.551,-4.878 0,-1.762 0.282,-3.481 0.633,-5.161 0.109,-0.511 0.231,-0.98 0.391,-1.441 0.148,-0.551 0.226,-1.141 0.468,-1.68 -2.82,-1.8 -5.98,-2.742 -9.218,-2.742 -9.571,0 -17.352,7.774 -17.352,17.352 0,9.531 7.781,17.34 17.352,17.34 z"
         style="fill:#000000;fill-opacity:1;fill-rule:nonzero;stroke:none"
         id="path3488"
         inkscape:connector-curvature="0" />
      <path
         d="m 213.012,258.32 c 4.609,0 9.097,1.289 13.039,3.711 0.859,-1.133 1.84,-2.179 2.859,-3.16 -1.332,-3.793 -4.422,-12.73 -7.89,-25 0,-0.043 -0.04,-0.082 -0.079,-0.121 -1.562,-1.012 -7.07,-2.539 -15.589,-2.539 -8.473,0 -13.981,1.57 -15.551,2.539 -0.11,0.352 -0.422,0.551 -0.621,0.859 6.289,14.891 11.601,23.403 13.398,26.02 3.16,-1.449 6.684,-2.309 10.434,-2.309 z"
         style="fill:#000000;fill-opacity:1;fill-rule:nonzero;stroke:none"
         id="path3490"
         inkscape:connector-curvature="0" />
      <path
         style="fill:#000000;fill-opacity:1;fill-rule:nonzero;stroke:none"
         d="M 57.462891 82.849609 C 53.541881 83.141146 50.027351 83.889944 47.236328 84.931641 C 50.489209 87.713416 54.489865 89.642749 58.898438 90.373047 L 66.816406 90.373047 C 70.729595 89.724569 74.324241 88.133358 77.357422 85.837891 C 74.55346 84.425492 70.58728 83.373038 65.949219 82.935547 C 66.146332 83.209315 66.355663 83.472916 66.595703 83.712891 C 66.633812 83.751382 66.668537 83.802668 66.689453 83.857422 C 66.711245 83.908748 66.722656 83.965876 66.722656 84.021484 C 66.722656 85.227347 64.320857 85.775391 62.087891 85.775391 C 59.854924 85.775391 57.451172 85.227347 57.451172 84.021484 C 57.451172 83.624093 57.45851 83.234167 57.462891 82.849609 z "
         transform="matrix(9.1317996,0,0,-9.1317996,-371.96647,835.27734)"
         id="path3492" />
    </g>
  </g>
</svg>
