<?xml version="1.0" encoding="UTF-8" standalone="no"?>
<!-- Created with Inkscape (http://www.inkscape.org/) -->

<svg
   xmlns:dc="http://purl.org/dc/elements/1.1/"
   xmlns:cc="http://creativecommons.org/ns#"
   xmlns:rdf="http://www.w3.org/1999/02/22-rdf-syntax-ns#"
   xmlns:svg="http://www.w3.org/2000/svg"
   xmlns="http://www.w3.org/2000/svg"
   xmlns:sodipodi="http://sodipodi.sourceforge.net/DTD/sodipodi-0.dtd"
   xmlns:inkscape="http://www.inkscape.org/namespaces/inkscape"
   width="210mm"
   height="297mm"
   viewBox="0 0 744.09448819 1052.3622047"
   id="svg4880"
   version="1.1"
   inkscape:version="0.91 r13725"
   sodipodi:docname="Logo mit Ausschnitt.svg">
  <defs
     id="defs4882" />
  <sodipodi:namedview
     id="base"
     pagecolor="#ffffff"
     bordercolor="#666666"
     borderopacity="1.0"
     inkscape:pageopacity="0.0"
     inkscape:pageshadow="2"
     inkscape:zoom="10.433412"
     inkscape:cx="486.68557"
     inkscape:cy="600.75982"
     inkscape:document-units="px"
     inkscape:current-layer="layer1"
     showgrid="false"
     inkscape:window-width="1676"
     inkscape:window-height="1005"
     inkscape:window-x="0"
     inkscape:window-y="1"
     inkscape:window-maximized="1" />
  <metadata
     id="metadata4885">
    <rdf:RDF>
      <cc:Work
         rdf:about="">
        <dc:format>image/svg+xml</dc:format>
        <dc:type
           rdf:resource="http://purl.org/dc/dcmitype/StillImage" />
        <dc:title></dc:title>
      </cc:Work>
    </rdf:RDF>
  </metadata>
  <g
     inkscape:label="Ebene 1"
     inkscape:groupmode="layer"
     id="layer1"
     style="display:inline">
    <g
       style="display:inline"
       transform="matrix(1.2395208,0,0,1.2395208,324.42709,328.31107)"
       id="layer1-8"
       inkscape:label="Ebene 1">
      <g
         transform="matrix(1.25,0,0,-1.25,63.31911,66.600854)"
         id="g408">
        <path
           style="fill:#e60064;fill-opacity:1;fill-rule:nonzero;stroke:none"
           d="M 467.97656 345.80859 C 432.03356 345.81944 402.91986 374.92957 402.91211 410.86328 C 402.91986 446.79699 432.03356 475.91797 467.97656 475.91797 C 488.70322 475.91797 507.14985 466.21335 519.06055 451.10938 C 519.08512 450.34165 519.09889 449.52677 519.10156 448.62891 C 519.10846 446.32612 518.38181 446.76033 519.05273 442.44727 C 519.4969 439.59189 520.44379 437.17511 520.15625 434.34766 C 521.11467 431.18474 520.25195 430.70508 520.25195 430.70508 C 520.25195 430.70508 520.15664 425.62566 521.21094 422.55859 C 522.26525 419.49152 525.33203 416.80859 525.33203 416.80859 C 525.33203 416.80859 528.01433 407.8939 528.87695 405.68945 C 529.46184 404.19475 530.65369 402.14461 532.05859 399.76562 C 526.78567 369.1255 500.1144 345.8183 467.97656 345.80859 z M 467.97656 357.99414 C 497.16883 358.05612 520.77551 381.67412 520.83594 410.86328 C 520.77551 440.05709 497.16883 463.68203 467.97656 463.72852 C 438.77035 463.68203 415.15808 440.05709 415.09766 410.86328 C 415.15808 381.67412 438.77035 358.05612 467.97656 357.99414 z "
           transform="matrix(0.64541071,0,0,-0.64541071,-260.04401,265.17616)"
           id="path410" />
      </g>
      <g
         transform="matrix(1.25,0,0,-1.25,78.46861,66.604354)"
         id="g412">
        <path
           inkscape:connector-curvature="0"
           id="path414"
           style="fill:#e60064;fill-opacity:1;fill-rule:nonzero;stroke:none"
           d="M 0,0 C 0,16.498 13.371,29.869 29.864,29.869 46.362,29.869 59.727,16.498 59.733,0 59.727,-16.492 46.362,-29.864 29.864,-29.864 13.371,-29.864 0,-16.492 0,0 M 1.574,0 C 1.6,-15.624 14.241,-28.263 29.864,-28.288 45.489,-28.263 58.127,-15.624 58.157,0 58.127,15.626 45.489,28.27 29.864,28.297 14.241,28.27 1.6,15.626 1.574,0" />
      </g>
      <g
         transform="matrix(1.25,0,0,-1.25,20.28481,84.003734)"
         id="g416">
        <path
           style="fill:#e60064;fill-opacity:1;fill-rule:nonzero;stroke:none"
           d="m 393.17578,388.82422 c -24.08234,0 -43.60547,19.51767 -43.60547,43.60156 0,0.85699 0.0313,1.70602 0.0801,2.55078 0.8652,0.5777 1.7285,1.17286 2.5957,1.78711 -0.15109,-1.42588 -0.23207,-2.8721 -0.23437,-4.33789 0.0356,-22.74056 18.4297,-41.1262 41.16406,-41.17578 22.73901,0.0496 41.12964,18.43522 41.16992,41.17578 -0.0403,22.74056 -18.43091,41.13159 -41.16992,41.17188 -6.38101,-0.0113 -12.4194,-1.46959 -17.80664,-4.0625 0.61117,1.43347 1.1855,2.44693 1.65625,3.39843 4.99634,1.99426 10.44251,3.10352 16.15039,3.10352 24.09319,0 43.60008,-19.52279 43.60938,-43.61133 -0.009,-24.08389 -19.51619,-43.60156 -43.60938,-43.60156 z"
           transform="matrix(0.64541071,0,0,-0.64541071,-225.61657,279.09847)"
           id="path418"
           inkscape:connector-curvature="0" />
      </g>
      <g
         transform="matrix(1.25,0,0,-1.25,99.31271,76.505854)"
         id="g420">
        <path
           inkscape:connector-curvature="0"
           id="path422"
           style="fill:#ffcd00;fill-opacity:1;fill-rule:nonzero;stroke:none"
           d="m 0,0 10.499,11.997 11.09,0 -7.675,-8.079 15.508,0 0,-7.831 -14.756,0 7.423,-7.175 -11.341,0 L 0,0 Z" />
      </g>
      <g
         transform="matrix(1.25,0,0,-1.25,47.99731,84.562234)"
         id="g424">
        <path
           inkscape:connector-curvature="0"
           id="path426"
           style="fill:#ffcd00;fill-opacity:1;fill-rule:nonzero;stroke:none"
           d="m 0,0 -6.779,0 4.437,4.288 -8.823,0 0,4.683 9.273,0 -4.588,4.833 6.631,0 L 6.426,6.627 0,0 Z" />
      </g>
    </g>
  </g>
</svg>
