<?xml version="1.0" encoding="UTF-8" standalone="no"?>
<!-- Created with Inkscape (http://www.inkscape.org/) -->

<svg
   xmlns:dc="http://purl.org/dc/elements/1.1/"
   xmlns:cc="http://creativecommons.org/ns#"
   xmlns:rdf="http://www.w3.org/1999/02/22-rdf-syntax-ns#"
   xmlns:svg="http://www.w3.org/2000/svg"
   xmlns="http://www.w3.org/2000/svg"
   xmlns:sodipodi="http://sodipodi.sourceforge.net/DTD/sodipodi-0.dtd"
   xmlns:inkscape="http://www.inkscape.org/namespaces/inkscape"
   width="43.769398mm"
   height="31.651432mm"
   viewBox="0 0 155.08842 112.15074"
   id="svg5990"
   version="1.1"
   inkscape:version="0.91 r13725"
   sodipodi:docname="Logo.svg">
  <defs
     id="defs5992" />
  <sodipodi:namedview
     id="base"
     pagecolor="#ffffff"
     bordercolor="#666666"
     borderopacity="1.0"
     inkscape:pageopacity="0.0"
     inkscape:pageshadow="2"
     inkscape:zoom="7.1958584"
     inkscape:cx="44.67808"
     inkscape:cy="50.516623"
     inkscape:document-units="px"
     inkscape:current-layer="layer1"
     showgrid="false"
     inkscape:window-width="1676"
     inkscape:window-height="1005"
     inkscape:window-x="0"
     inkscape:window-y="1"
     inkscape:window-maximized="1"
     fit-margin-top="1"
     fit-margin-left="1"
     fit-margin-bottom="1"
     fit-margin-right="1" />
  <metadata
     id="metadata5995">
    <rdf:RDF>
      <cc:Work
         rdf:about="">
        <dc:format>image/svg+xml</dc:format>
        <dc:type
           rdf:resource="http://purl.org/dc/dcmitype/StillImage" />
        <dc:title></dc:title>
      </cc:Work>
    </rdf:RDF>
  </metadata>
  <g
     inkscape:label="Ebene 1"
     inkscape:groupmode="layer"
     id="layer1"
     transform="translate(-16.741503,-10.572547)">
    <g
       id="g408"
       transform="matrix(1.25,0,0,-1.25,63.31911,66.600854)">
      <path
         d="M 0,0 C 0.005,23.192 18.795,41.981 41.993,41.988 65.178,41.981 83.969,23.192 83.974,0 83.969,-23.192 65.178,-41.987 41.993,-41.987 18.795,-41.987 0.005,-23.192 0,0 M 7.865,0 C 7.904,-18.842 23.143,-34.089 41.993,-34.119 60.834,-34.089 76.07,-18.842 76.109,0 76.07,18.839 60.834,34.083 41.993,34.123 23.143,34.083 7.904,18.839 7.865,0"
         style="fill:#e60064;fill-opacity:1;fill-rule:nonzero;stroke:none"
         id="path410"
         inkscape:connector-curvature="0" />
    </g>
    <g
       id="g412"
       transform="matrix(1.25,0,0,-1.25,78.46861,66.604354)">
      <path
         d="M 0,0 C 0,16.498 13.371,29.869 29.864,29.869 46.362,29.869 59.727,16.498 59.733,0 59.727,-16.492 46.362,-29.864 29.864,-29.864 13.371,-29.864 0,-16.492 0,0 M 1.574,0 C 1.6,-15.624 14.241,-28.263 29.864,-28.288 45.489,-28.263 58.127,-15.624 58.157,0 58.127,15.626 45.489,28.27 29.864,28.297 14.241,28.27 1.6,15.626 1.574,0"
         style="fill:#e60064;fill-opacity:1;fill-rule:nonzero;stroke:none"
         id="path414"
         inkscape:connector-curvature="0" />
    </g>
    <g
       id="g416"
       transform="matrix(1.25,0,0,-1.25,20.28481,84.003734)">
      <path
         d="M 0,0 C 0,15.547 12.6,28.147 28.143,28.147 43.693,28.147 56.283,15.547 56.289,0 56.283,-15.544 43.693,-28.141 28.143,-28.141 12.6,-28.141 0,-15.544 0,0 M 1.575,0 C 1.598,-14.677 13.47,-26.544 28.143,-26.576 42.819,-26.544 54.689,-14.677 54.715,0 54.689,14.677 42.819,26.546 28.143,26.572 13.47,26.546 1.598,14.677 1.575,0"
         style="fill:#e60064;fill-opacity:1;fill-rule:nonzero;stroke:none"
         id="path418"
         inkscape:connector-curvature="0" />
    </g>
    <g
       id="g420"
       transform="matrix(1.25,0,0,-1.25,99.31271,76.505854)">
      <path
         d="m 0,0 10.499,11.997 11.09,0 -7.675,-8.079 15.508,0 0,-7.831 -14.756,0 7.423,-7.175 -11.341,0 L 0,0 Z"
         style="fill:#ffcd00;fill-opacity:1;fill-rule:nonzero;stroke:none"
         id="path422"
         inkscape:connector-curvature="0" />
    </g>
    <g
       id="g424"
       transform="matrix(1.25,0,0,-1.25,47.99731,84.562234)">
      <path
         d="m 0,0 -6.779,0 4.437,4.288 -8.823,0 0,4.683 9.273,0 -4.588,4.833 6.631,0 L 6.426,6.627 0,0 Z"
         style="fill:#ffcd00;fill-opacity:1;fill-rule:nonzero;stroke:none"
         id="path426"
         inkscape:connector-curvature="0" />
    </g>
  </g>
</svg>
